<svg class="img-fluid" id="outputsvg" xmlns="http://www.w3.org/2000/svg" style="transform: matrix(1.3, 0, 0, 1.3, -1.3501, 19.9); transform-origin: 50% 50%; cursor: move; max-height: none; transition: none 0s ease 0s;" width="250" height="250" viewBox="0 0 2500 2500"><g id="l6x6ij5vfjgDFXtmwOLAbti" fill="rgb(251,251,251)" style="transform: none;"><g><path id="p188o4hdM5" d="M0 1250 l0 -1250 1250 0 1250 0 0 1250 0 1250 -1250 0 -1250 0 0 -1250z m1221 1074 c9 -8 38 -14 68 -14 60 0 165 -24 198 -46 12 -8 30 -14 40 -14 29 -1 75 -45 89 -87 21 -59 17 -98 -12 -132 -21 -26 -33 -31 -69 -31 -59 0 -75 -8 -75 -36 0 -13 -9 -28 -20 -34 -17 -9 -20 -21 -20 -81 0 -53 4 -71 15 -75 17 -7 21 -79 5 -89 -15 -10 -11 -133 8 -205 15 -56 20 -65 42 -68 13 -2 36 -14 51 -25 14 -12 35 -27 45 -33 17 -10 17 -12 -2 -45 -20 -35 -39 -106 -49 -192 -5 -37 -11 -50 -28 -56 -27 -10 -57 -99 -57 -166 0 -33 -5 -47 -21 -58 -15 -11 -20 -24 -18 -49 1 -18 -8 -54 -19 -80 -14 -31 -21 -66 -20 -105 0 -33 -5 -76 -13 -96 -11 -32 -11 -46 4 -101 21 -79 21 -86 2 -86 -11 0 -15 -11 -15 -42 0 -24 -5 -50 -10 -58 -8 -13 -10 -13 -10 2 0 22 -72 58 -117 58 -29 0 -33 3 -33 28 0 32 -16 52 -41 52 -24 0 -32 94 -11 135 8 16 17 60 20 97 5 72 12 84 52 90 21 2 26 9 28 41 3 35 2 37 -27 37 -16 0 -36 7 -45 15 -8 8 -19 15 -25 15 -6 0 -11 16 -11 35 0 24 -5 35 -15 35 -8 0 -17 12 -20 28 -4 15 -12 54 -19 87 -8 33 -12 77 -9 97 5 39 -11 103 -33 129 -34 39 -52 131 -50 257 l1 123 30 17 c17 9 33 21 36 26 9 12 29 -2 29 -20 0 -9 11 -14 35 -14 l35 0 0 85 c0 81 -1 86 -25 97 -20 9 -25 19 -25 47 0 20 -7 45 -15 55 -10 13 -12 32 -9 60 8 55 -10 86 -79 137 -44 33 -57 48 -57 69 0 30 59 100 84 100 10 0 23 15 31 34 23 55 60 78 114 70 25 -3 53 -13 62 -20z"></path><path id="plJJkZWrT" d="M1220 1965 c0 -8 -4 -15 -10 -15 -18 0 -10 -58 13 -94 17 -28 29 -35 53 -36 20 0 34 6 38 16 10 26 7 114 -4 114 -5 0 -10 7 -10 15 0 11 -11 15 -40 15 -29 0 -40 -4 -40 -15z"></path><path id="pXmmRLBuW" d="M1234 1785 c-8 -21 5 -105 17 -105 5 0 9 -12 9 -27 0 -58 10 -73 46 -73 l34 0 0 50 c0 34 -5 52 -14 56 -8 3 -12 13 -9 25 3 10 2 35 -1 54 -6 32 -10 35 -42 35 -22 0 -37 -6 -40 -15z"></path><path id="pdLfNgFAf" d="M1073 1514 c-15 -6 -18 -139 -5 -148 5 -3 12 -54 15 -113 5 -72 14 -129 29 -170 21 -57 26 -63 51 -63 32 0 77 26 77 45 0 7 5 15 10 17 6 2 14 29 17 60 5 51 3 59 -19 80 -13 12 -33 28 -43 34 -15 8 -20 28 -26 105 -10 135 -17 154 -60 156 -19 1 -40 0 -46 -3z"></path></g></g><g id="lCQ8aykb6gN1iKjE4g5m3j" fill="rgb(238,238,238)" style="transform: none;"><g><path id="pMsk3aRVg" d="M1043 2348 c-11 -13 -24 -34 -28 -46 -4 -13 -19 -28 -35 -34 -55 -19 -103 -112 -86 -166 4 -11 33 -39 66 -63 55 -40 74 -66 71 -96 -1 -7 7 -13 19 -13 17 0 20 6 20 50 0 28 -4 50 -10 50 -5 0 -10 9 -10 19 0 11 -15 28 -35 41 -19 12 -35 28 -35 35 0 7 -3 20 -6 29 -4 11 4 21 26 33 35 20 69 84 78 145 5 43 -5 48 -35 16z"></path><path id="pZjE81z08" d="M1180 2351 c0 -11 9 -23 20 -26 11 -3 25 -15 30 -26 9 -15 22 -19 63 -19 96 -1 211 -42 256 -91 17 -19 31 -39 31 -45 0 -6 9 -19 20 -29 15 -13 20 -31 20 -68 l0 -49 -55 7 c-77 9 -95 2 -95 -41 0 -19 5 -34 10 -34 6 0 10 6 10 14 0 19 25 26 72 22 39 -3 71 20 98 72 13 26 7 96 -14 157 -14 40 -60 84 -89 85 -10 0 -28 6 -40 14 -34 22 -138 46 -200 46 -36 0 -59 5 -67 15 -7 8 -25 15 -41 15 -22 0 -29 -5 -29 -19z"></path><path id="pKU8Y9lo" d="M1200 1950 c0 -57 1 -60 25 -60 21 0 25 -5 25 -30 0 -28 3 -30 35 -30 l35 0 0 64 c0 44 -5 69 -15 80 -8 8 -15 19 -15 25 0 6 -20 11 -45 11 l-45 0 0 -60z m70 -15 c0 -8 5 -15 10 -15 12 0 13 -40 2 -56 -4 -7 -15 1 -29 22 -12 19 -18 34 -13 34 6 0 10 7 10 15 0 8 5 15 10 15 6 0 10 -7 10 -15z"></path><path id="pZY2zDIuL" d="M1053 1805 c-3 -29 0 -35 17 -35 16 0 20 7 20 35 0 27 -4 35 -17 35 -13 0 -19 -9 -20 -35z"></path><path id="pAksUm0xm" d="M1113 1665 c0 -22 2 -30 4 -17 2 12 2 30 0 40 -3 9 -5 -1 -4 -23z"></path><path id="pZ64XZNZE" d="M1028 1663 c-10 -2 -18 -11 -18 -19 0 -10 13 -14 46 -14 38 0 45 3 40 16 -3 9 -6 18 -6 20 0 5 -39 3 -62 -3z"></path><path id="pHeTh1Bsv" d="M1270 1605 c0 -33 2 -35 35 -35 33 0 35 2 35 35 0 37 -25 50 -33 18 -4 -17 -5 -17 -6 0 0 9 -8 17 -16 17 -10 0 -15 -11 -15 -35z"></path><path id="pg7esyL1o" d="M930 1470 c0 -5 4 -10 9 -10 4 0 6 -11 3 -25 -3 -20 0 -25 17 -25 17 0 21 6 21 35 0 31 -3 35 -25 35 -14 0 -25 -4 -25 -10z"></path><path id="pV7gxK92g" d="M1060 1395 c0 -32 2 -35 30 -35 33 0 38 11 15 30 -8 7 -15 19 -15 26 0 8 -7 14 -15 14 -10 0 -15 -11 -15 -35z"></path><path id="p14lKp9H1V" d="M1340 1356 c0 -36 15 -46 72 -46 23 0 27 -5 30 -32 3 -30 6 -33 41 -36 l38 -3 -3 38 c-3 35 -6 38 -35 41 -29 3 -33 7 -33 31 0 31 -18 41 -77 41 -31 0 -33 -2 -33 -34z"></path><path id="p7Hj3Trw8" d="M1090 1295 c0 -38 4 -42 25 -21 16 16 8 56 -11 56 -9 0 -14 -12 -14 -35z"></path><path id="pdFsQpfOt" d="M1150 1303 c0 -43 11 -73 26 -73 8 0 14 4 14 9 0 5 9 11 20 14 15 4 20 14 20 41 0 35 -1 36 -40 36 -37 0 -40 -2 -40 -27z"></path><path id="p154j0POiJ" d="M1560 1234 c0 -28 3 -35 18 -32 9 2 17 12 17 23 1 11 4 26 8 33 6 8 1 12 -17 12 -23 0 -26 -4 -26 -36z"></path><path id="pye407STU" d="M1080 1190 c0 -35 3 -40 23 -40 20 0 22 4 19 40 -3 31 -8 40 -23 40 -15 0 -19 -7 -19 -40z"></path><path id="pKRUhY712" d="M970 1211 c0 -6 11 -23 25 -38 l24 -28 1 38 c0 33 -3 37 -25 37 -14 0 -25 -4 -25 -9z"></path><path id="pO3B8RwUh" d="M1530 1085 c0 -24 5 -35 15 -35 8 0 15 7 15 15 0 8 7 15 16 15 11 0 14 5 10 16 -3 9 -6 18 -6 20 0 2 -11 4 -25 4 -22 0 -25 -4 -25 -35z"></path><path id="pUA9IaCJE" d="M1460 955 c0 -39 14 -46 30 -16 16 31 12 51 -10 51 -16 0 -20 -7 -20 -35z"></path><path id="p10bzIGd3h" d="M1036 848 c-9 -37 -7 -48 10 -48 20 0 43 28 44 53 0 27 -46 23 -54 -5z"></path><path id="pcFJkDnRY" d="M1060 762 c0 -28 11 -34 36 -17 17 11 24 12 27 2 3 -6 6 -2 6 11 1 19 -4 22 -34 22 -27 0 -35 -4 -35 -18z"></path><path id="psb0LWFaA" d="M1430 736 c0 -19 4 -23 19 -19 13 3 17 11 14 24 -8 28 -33 24 -33 -5z"></path><path id="p1H02PdCEA" d="M1140 740 c0 -5 14 -10 31 -10 17 0 28 -4 24 -10 -3 -5 -12 -7 -19 -4 -21 8 -76 -44 -76 -72 0 -13 5 -24 10 -24 6 0 10 -9 10 -20 0 -13 7 -20 20 -20 16 0 20 7 20 35 0 19 -4 35 -10 35 -5 0 -10 7 -10 15 0 10 11 15 35 15 33 0 35 2 35 35 0 33 -2 35 -35 35 -19 0 -35 -4 -35 -10z"></path><path id="pIVGu9yfT" d="M1380 555 c0 -19 5 -35 10 -35 6 0 10 6 10 14 0 8 5 16 11 18 14 5 0 38 -17 38 -9 0 -14 -12 -14 -35z"></path><path id="pPABaUXdO" d="M1096 521 c-3 -4 -10 -20 -15 -35 -10 -24 -8 -26 14 -26 22 0 25 4 25 35 0 33 -12 46 -24 26z"></path><path id="pdJZP0XPp" d="M1370 385 c0 -28 4 -35 20 -35 21 0 24 10 14 48 -10 36 -34 27 -34 -13z"></path><path id="pG79YUzLh" d="M1064 345 c-16 -40 -18 -65 -5 -65 15 0 68 49 54 50 -7 0 -13 11 -13 25 0 36 -19 31 -36 -10z"></path><path id="p13Nx1nVsA" d="M1210 262 c0 -7 17 -18 63 -40 4 -2 7 8 7 22 0 23 -4 26 -35 26 -19 0 -35 -4 -35 -8z"></path></g></g><g id="lTfABeSR6aI4NH82D4RyEl" fill="rgb(217,217,217)" style="transform: none;"><g><path id="p0CDjNSLj" d="M1210 2326 c0 -21 9 -42 25 -60 21 -22 32 -26 83 -26 46 0 65 -5 92 -25 19 -14 39 -25 46 -25 7 0 21 -11 31 -23 10 -14 35 -27 56 -31 28 -5 43 -16 60 -41 25 -39 52 -45 60 -14 4 13 -4 31 -24 53 -16 19 -29 38 -29 42 0 5 -14 24 -31 43 -43 47 -166 93 -254 95 -38 1 -56 7 -72 24 -32 31 -43 28 -43 -12z"></path><path id="plCMx2tUX" d="M1020 2274 c-8 -20 -26 -42 -40 -49 -45 -23 -49 -35 -38 -93 9 -43 16 -56 44 -73 20 -12 34 -29 34 -40 0 -10 5 -19 10 -19 6 0 10 -7 10 -15 0 -8 7 -15 15 -15 21 0 20 78 -1 101 -19 21 -21 117 -4 149 5 10 10 35 10 54 0 47 -22 47 -40 0z"></path><path id="pWExn8PX3" d="M1190 1998 c0 -29 3 -70 6 -90 6 -34 10 -38 35 -38 32 0 37 11 14 30 -18 15 -16 80 3 80 6 0 12 -7 12 -15 0 -8 4 -15 10 -15 5 0 12 -11 16 -25 3 -14 13 -25 21 -25 13 0 15 9 10 52 -4 29 -11 54 -17 56 -5 2 -10 10 -10 17 0 14 -30 25 -72 25 -27 0 -28 -2 -28 -52z"></path><path id="pxoLyN6xu" d="M1450 1955 c0 -30 3 -35 24 -35 19 0 23 4 19 20 -3 12 1 22 11 26 28 11 17 24 -19 24 -33 0 -35 -2 -35 -35z"></path><path id="p147uhbikh" d="M1420 1805 c0 -32 2 -35 30 -35 32 0 42 23 15 34 -8 3 -15 12 -15 21 0 8 -7 15 -15 15 -10 0 -15 -11 -15 -35z"></path><path id="p19mHi79eb" d="M1450 1673 c0 -35 0 -36 20 -18 11 10 20 26 20 37 0 11 -7 18 -20 18 -16 0 -20 -7 -20 -37z"></path><path id="p3vvXTLm0" d="M963 1623 c-29 -20 -31 -53 -3 -53 23 0 33 18 28 48 -3 18 -5 19 -25 5z"></path><path id="p1AoIvCCKz" d="M1360 1370 c0 -5 -25 -10 -56 -10 -67 0 -134 -18 -134 -36 0 -7 -5 -14 -11 -16 -9 -3 -9 -15 -3 -43 11 -47 40 -60 49 -22 5 19 17 26 56 35 28 7 61 12 75 12 13 0 24 5 24 10 0 6 20 10 45 10 41 0 45 -2 45 -24 0 -44 10 -56 46 -56 31 0 34 3 34 29 0 47 -10 61 -41 61 -26 0 -29 4 -29 30 0 29 -1 30 -50 30 -27 0 -50 -4 -50 -10z"></path><path id="p18Nhps2tK" d="M1080 1245 c0 -28 4 -35 20 -35 21 0 24 10 14 48 -10 36 -34 27 -34 -13z"></path><path id="p158HSDzkV" d="M1226 1185 c8 -13 13 -29 9 -35 -3 -6 3 -10 14 -10 17 0 21 6 21 35 0 32 -2 35 -30 35 -30 0 -30 0 -14 -25z"></path><path id="p1Agu6zFxT" d="M1550 1105 c0 -16 -6 -25 -15 -25 -15 0 -21 -40 -8 -53 11 -12 33 14 33 39 0 17 4 22 15 18 18 -7 19 0 5 27 -15 27 -30 24 -30 -6z"></path><path id="p7OU7x4ti" d="M1157 893 c-4 -3 -7 -16 -7 -28 0 -15 -9 -24 -32 -30 -26 -8 -34 -16 -36 -37 -2 -21 -9 -28 -24 -28 -20 0 -20 -1 -3 -20 15 -17 20 -18 38 -5 17 12 22 12 34 -1 16 -16 73 -19 73 -4 0 6 -4 10 -10 10 -5 0 -10 15 -10 34 0 28 4 35 23 38 18 2 23 10 25 41 3 36 2 37 -31 37 -18 0 -37 -3 -40 -7z"></path><path id="pQ2vJbZYD" d="M1145 707 c-26 -14 -16 -27 20 -27 27 0 35 4 35 18 0 19 -29 24 -55 9z"></path><path id="pdV8vaXc9" d="M1080 481 c-16 -31 -12 -51 10 -51 16 0 20 7 20 35 0 39 -14 46 -30 16z"></path><path id="plRdbY5t1" d="M1210 315 c0 -33 2 -35 35 -35 33 0 35 2 35 35 0 33 -2 35 -35 35 -33 0 -35 -2 -35 -35z"></path><path id="pCsh0kTm8" d="M1380 320 c0 -18 6 -33 15 -37 23 -8 28 1 20 36 -9 41 -35 41 -35 1z"></path></g></g><g id="lfPBnTrDr1ifwVLgrJRhp0" fill="rgb(237,218,170)" style="transform: none;"><g><path id="pjQhCLuyG" d="M949 1275 c21 -45 41 -45 41 0 0 32 -3 35 -29 35 l-28 0 16 -35z"></path><path id="puWXoEEpJ" d="M1020 1114 c6 -14 8 -30 4 -35 -3 -5 4 -9 15 -9 17 0 21 6 21 35 0 31 -3 35 -25 35 -22 0 -24 -2 -15 -26z"></path><path id="pXJBBnI7G" d="M1195 990 c-3 -5 -5 -40 -4 -76 l2 -67 68 7 c64 6 70 4 94 -19 14 -14 25 -37 25 -50 0 -22 4 -25 40 -25 35 0 40 2 32 16 -7 13 -2 23 20 43 29 26 29 26 13 59 -10 19 -24 32 -36 32 -15 0 -19 7 -19 36 l0 35 -57 -2 c-32 -1 -71 4 -86 10 -35 14 -84 14 -92 1z"></path><path id="p122RJ4xZc" d="M1201 696 c-7 -8 -11 -30 -9 -48 3 -30 6 -33 39 -36 46 -4 69 18 69 64 0 34 -1 34 -44 34 -26 0 -48 -6 -55 -14z"></path><path id="p1ATaC0ejQ" d="M1330 645 c0 -33 2 -35 35 -35 33 0 35 2 35 35 0 33 -2 35 -35 35 -33 0 -35 -2 -35 -35z"></path></g></g><g id="lA5o5KP975pzvLmid9wsZb" fill="rgb(198,198,198)" style="transform: none;"><g><path id="p15kpnX7FK" d="M1068 2369 c-29 -16 -21 -29 17 -29 28 0 35 4 35 20 0 22 -24 26 -52 9z"></path><path id="p1DcVYFkLS" d="M1210 2313 c0 -21 -11 -60 -25 -87 -21 -41 -25 -64 -25 -134 0 -103 15 -152 46 -152 19 0 21 5 18 39 -3 35 -1 38 16 34 11 -3 20 -12 20 -19 0 -8 5 -14 10 -14 6 0 10 -7 10 -15 0 -8 7 -15 15 -15 10 0 15 10 15 28 1 37 18 56 62 71 20 7 38 17 40 23 2 6 33 19 69 29 52 15 71 16 102 7 33 -10 37 -15 37 -45 0 -40 25 -45 34 -7 11 42 -33 101 -81 110 -21 4 -46 17 -56 31 -10 12 -24 23 -30 23 -6 0 -28 12 -49 27 -31 21 -52 27 -100 28 -51 1 -63 5 -79 26 -10 13 -19 30 -19 37 0 6 -7 12 -15 12 -11 0 -15 -11 -15 -37z"></path><path id="pvHHNursM" d="M1022 2257 c-7 -18 -12 -45 -12 -60 0 -14 -5 -38 -12 -52 -11 -25 -6 -47 23 -95 5 -8 12 -23 15 -32 4 -10 13 -18 21 -18 13 0 14 10 9 59 -4 32 -7 97 -7 145 0 93 -15 114 -37 53z"></path><path id="pblNPlhta" d="M1500 1991 c0 -12 7 -19 18 -19 9 0 25 -3 35 -7 14 -6 17 -2 17 19 0 23 -4 26 -35 26 -28 0 -35 -4 -35 -19z"></path><path id="pLJWAkKfu" d="M1027 1916 c-8 -21 4 -56 19 -56 9 0 14 12 14 35 0 36 -22 50 -33 21z"></path><path id="pQtBv2xx1" d="M1110 1648 c0 -33 0 -33 -13 -9 -18 37 -37 38 -37 2 0 -29 3 -31 35 -31 33 0 35 2 35 35 0 19 -4 35 -10 35 -5 0 -10 -15 -10 -32z"></path><path id="pLKl3smj1" d="M1070 1485 c0 -19 5 -35 10 -35 6 0 10 6 10 14 0 25 30 27 40 3 7 -19 9 -17 9 16 1 36 0 37 -34 37 -33 0 -35 -2 -35 -35z"></path><path id="p13ZKPGZtK" d="M1460 1445 c0 -33 2 -35 35 -35 39 0 50 24 15 33 -11 3 -20 12 -20 21 0 9 -7 16 -15 16 -10 0 -15 -11 -15 -35z"></path><path id="p154tbjURw" d="M1146 1378 c0 -23 6 -44 12 -46 15 -5 16 -32 2 -32 -5 0 -10 -7 -10 -15 0 -21 13 -19 35 5 10 11 22 20 26 20 4 0 -6 -13 -22 -29 -16 -16 -29 -34 -29 -39 0 -6 16 -19 35 -31 20 -11 38 -27 41 -36 11 -27 24 -16 24 20 0 31 -3 35 -25 35 -14 0 -25 6 -25 13 0 14 54 37 88 37 16 0 22 6 22 21 0 20 -4 21 -47 16 -31 -4 -41 -3 -28 3 11 5 32 9 48 9 39 1 34 19 -8 27 -39 7 -86 -2 -96 -18 -4 -6 -4 10 -2 36 5 43 4 46 -18 46 -22 0 -24 -4 -23 -42z"></path><path id="pVZt9duOy" d="M1330 1355 l0 -35 50 0 50 0 0 -35 c0 -24 5 -35 15 -35 8 0 15 -7 15 -15 0 -10 11 -15 35 -15 35 0 35 0 35 44 0 47 -11 56 -72 56 -16 0 -28 5 -28 10 0 6 -8 10 -17 10 -10 0 -25 5 -33 10 -11 7 -6 8 18 4 28 -6 32 -4 32 15 0 19 -6 21 -50 21 l-50 0 0 -35z"></path><path id="pkmV609xS" d="M1600 1355 c0 -25 4 -35 15 -35 21 0 29 24 15 49 -16 32 -30 25 -30 -14z"></path><path id="pVlZNyNf9" d="M1080 1345 c0 -27 4 -35 18 -35 14 0 19 8 20 35 1 29 -2 35 -18 35 -16 0 -20 -7 -20 -35z"></path><path id="pQkACclvv" d="M1110 1105 c0 -33 -2 -35 -34 -35 -33 0 -33 0 -39 -54 -6 -64 0 -96 19 -96 9 0 14 11 14 30 0 28 2 30 40 30 l40 0 0 40 c0 25 -5 40 -12 41 -7 0 -5 3 4 7 15 6 15 11 3 40 -18 42 -35 41 -35 -3z"></path><path id="pOBy8iCzK" d="M1155 900 c-3 -5 -19 -10 -35 -10 -23 0 -31 -5 -36 -24 -3 -14 -4 -29 -1 -33 3 -5 1 -15 -4 -23 -9 -13 -10 -13 -8 0 4 37 -2 60 -15 60 -15 0 -26 -30 -26 -76 0 -39 36 -62 69 -45 14 8 21 8 21 1 0 -26 41 -5 78 39 39 46 55 91 32 91 -5 0 -10 7 -10 15 0 17 -55 21 -65 5z m-20 -110 c-10 -11 -21 -17 -24 -14 -3 3 3 12 13 20 28 20 32 17 11 -6z"></path><path id="pXkOo0g8q" d="M1386 708 c-9 -36 -7 -78 4 -78 6 0 19 20 30 44 10 24 24 46 32 49 7 3 -3 6 -23 6 -30 1 -38 -3 -43 -21z"></path><path id="pJC6X1zmz" d="M1220 505 c-8 -10 -15 -56 -18 -115 -4 -95 -4 -100 15 -100 12 0 26 -7 33 -15 7 -8 28 -15 46 -15 l34 0 -2 73 c-1 39 2 98 7 130 l8 57 -55 0 c-38 0 -60 -5 -68 -15z"></path><path id="puycgduji" d="M1066 438 c-9 -35 -7 -41 10 -34 12 4 14 1 9 -14 -5 -14 -2 -20 9 -20 17 0 22 42 10 74 -9 23 -31 19 -38 -6z"></path><path id="p3lhVsuQK" d="M1360 425 c0 -28 4 -35 20 -35 21 0 24 10 14 48 -10 36 -34 27 -34 -13z"></path><path id="p139xuPLVy" d="M1046 304 c-4 -9 -4 -19 -1 -22 7 -7 55 19 55 30 0 15 -48 8 -54 -8z"></path><path id="p146OouyFB" d="M1340 205 c0 -39 14 -46 30 -16 16 31 12 51 -10 51 -16 0 -20 -7 -20 -35z"></path><path id="pOzKLMxqh" d="M1132 210 c-7 -11 -10 -20 -6 -20 13 0 44 21 44 30 0 17 -25 11 -38 -10z"></path></g></g><g id="l1Jcn72l0GTXoNeVlmkG59s" fill="rgb(249,174,111)" style="transform: none;"><g><path id="pGT6a9uQE" d="M1010 1650 c0 -5 -6 -10 -13 -10 -8 0 -22 -9 -32 -20 -18 -20 -17 -20 18 -20 21 0 37 5 37 10 0 6 7 10 15 10 8 0 15 9 15 20 0 13 -7 20 -20 20 -11 0 -20 -4 -20 -10z"></path><path id="pZtIsGT7n" d="M1080 1225 c0 -32 4 -45 14 -45 19 0 29 31 20 64 -11 45 -34 32 -34 -19z"></path><path id="pYb2sBsQr" d="M962 1233 c35 -74 48 -81 48 -28 0 31 -3 35 -26 35 -14 0 -24 -3 -22 -7z"></path><path id="pU6Tu2EfL" d="M1258 793 c-10 -2 -18 -10 -18 -17 0 -7 -11 -23 -25 -36 -14 -13 -25 -29 -25 -37 0 -8 -13 -13 -35 -13 -24 0 -37 -6 -45 -19 -14 -27 -13 -51 3 -51 9 0 11 -12 9 -40 -4 -35 -1 -40 16 -40 11 0 22 -6 25 -12 2 -9 26 -13 74 -12 65 2 72 0 84 -22 8 -16 21 -24 40 -24 28 0 39 15 39 55 0 13 4 26 9 29 4 3 5 23 1 44 -4 21 -3 48 1 59 4 12 5 46 2 76 -5 45 -9 56 -27 61 -24 7 -102 6 -128 -1z m12 -117 c0 -3 -7 -12 -16 -20 -19 -20 -40 -11 -23 10 10 13 39 20 39 10z"></path></g></g><g id="l2ewJmu72bNkoXE0dc8ZPTW" fill="rgb(201,184,141)" style="transform: none;"><g><path id="pJ0F5886c" d="M943 1357 c-28 -14 -29 -27 -3 -60 11 -14 20 -33 20 -42 0 -9 5 -25 10 -35 9 -16 18 -18 60 -13 46 5 50 4 50 -16 0 -14 6 -21 18 -21 16 0 18 7 14 55 -2 31 1 55 6 55 17 0 0 51 -22 65 -29 19 -125 27 -153 12z"></path><path id="phwIU9L8A" d="M1432 1116 c4 -44 10 -60 37 -87 26 -26 35 -29 42 -18 4 8 14 14 21 14 16 0 40 72 33 97 -9 25 -56 48 -101 48 l-36 0 4 -54z"></path><path id="p8kOeBQoN" d="M1190 983 c0 -11 -3 -41 -6 -67 -6 -37 -4 -46 7 -44 8 2 13 -3 12 -9 -2 -8 7 -13 22 -13 16 0 25 6 25 15 0 8 -7 15 -15 15 -11 0 -15 11 -15 38 0 21 3 41 6 45 3 3 28 -3 56 -14 36 -14 54 -16 68 -9 10 5 26 10 35 10 14 0 16 -6 11 -34 -6 -32 -5 -34 30 -39 20 -3 42 -11 50 -18 13 -10 11 -16 -8 -38 -22 -25 -21 -25 7 1 23 22 27 30 17 40 -7 7 -12 20 -12 30 0 10 -10 20 -25 24 -21 5 -25 12 -25 41 l0 34 -62 -1 c-35 -1 -89 2 -120 6 -53 6 -58 5 -58 -13z"></path><path id="p1GFLuVXNO" d="M1298 893 c-32 -8 -19 -30 20 -37 36 -5 39 -8 51 -56 12 -48 14 -50 47 -50 27 0 34 4 34 20 0 13 -7 20 -20 20 -22 0 -26 20 -8 38 8 8 5 14 -15 21 -14 6 -31 19 -37 31 -10 19 -33 23 -72 13z"></path><path id="pvip6rXpa" d="M1191 648 c0 -18 3 -27 6 -20 2 6 12 12 21 12 8 0 12 3 9 7 -4 3 -2 12 4 20 9 10 6 13 -15 13 -23 0 -26 -4 -25 -32z"></path><path id="p1DAsCcXQs" d="M1265 667 c-4 -10 -5 -21 -1 -24 10 -10 18 4 13 24 -4 17 -4 17 -12 0z"></path><path id="pAVAhLPTv" d="M1351 656 c-10 -11 -4 -23 30 -58 22 -23 38 -38 35 -31 -4 7 -7 33 -8 58 0 25 -4 45 -9 45 -5 0 -9 -5 -9 -11 0 -8 -4 -8 -14 0 -10 8 -16 8 -25 -3z"></path></g></g><g id="l2uw8yi0lrOnkFoL8AQEQtx" fill="rgb(187,177,136)" style="transform: none;"><g><path id="pDhvvruqE" d="M1147 1788 c-23 -18 -35 -251 -17 -326 11 -48 14 -52 41 -52 16 0 43 9 61 20 18 11 41 20 51 20 40 0 45 78 12 195 -9 33 -22 81 -28 108 l-11 47 -46 0 c-25 0 -54 -6 -63 -12z"></path><path id="pFdmICCZW" d="M985 1378 c-32 -11 -65 -36 -65 -48 0 -4 8 -18 19 -31 l18 -23 18 34 c15 29 19 31 27 16 7 -13 13 -14 22 -6 10 7 24 6 50 -5 20 -8 36 -17 36 -20 0 -2 -14 -12 -30 -20 -19 -10 -28 -20 -24 -28 4 -7 -2 -3 -14 7 -22 19 -22 19 -22 -7 0 -24 4 -27 35 -27 24 0 35 5 35 15 0 8 5 15 10 15 6 0 10 7 10 15 0 8 4 15 9 15 6 0 6 12 1 31 -5 16 -6 37 -3 44 11 30 -72 44 -132 23z"></path><path id="pl1h3njhf" d="M1430 1125 c0 -52 1 -55 24 -55 23 0 24 2 14 31 -13 39 -7 44 30 25 35 -18 46 -43 36 -82 -11 -42 13 -20 26 24 15 54 13 62 -15 62 -18 0 -25 5 -25 19 0 21 -19 31 -61 31 -29 0 -29 -1 -29 -55z"></path><path id="p59qolYuh" d="M1501 1025 c0 -35 1 -37 10 -17 6 15 5 30 -1 40 -7 13 -9 8 -9 -23z"></path><path id="pziz9KuQl" d="M1220 989 c0 -8 21 -22 48 -31 38 -14 55 -15 90 -6 54 13 57 38 5 38 -21 0 -62 3 -90 6 -42 5 -53 4 -53 -7z"></path><path id="prr08iCBO" d="M1180 909 c0 -22 4 -38 9 -34 5 3 12 1 15 -3 3 -5 -19 -34 -49 -66 -30 -31 -50 -54 -45 -51 6 3 10 1 10 -4 0 -6 18 -14 41 -17 42 -7 42 -19 -1 -27 -14 -2 -5 -5 23 -6 l47 -1 0 44 c0 26 -6 48 -15 56 -27 22 -17 37 30 44 36 6 45 11 45 27 0 19 -4 20 -40 14 l-39 -7 6 36 c5 32 3 36 -16 36 -18 0 -21 -6 -21 -41z"></path><path id="pJ4XJSI75" d="M1400 910 c0 -11 6 -20 13 -20 6 0 24 -7 40 -14 26 -14 27 -14 27 13 0 21 -6 30 -22 35 -42 11 -58 7 -58 -14z"></path><path id="p1EUIMz0ul" d="M1318 893 c-31 -8 -21 -33 12 -33 27 0 30 -3 30 -30 0 -16 5 -30 10 -30 6 0 10 -16 10 -35 0 -19 5 -35 10 -35 6 0 10 -11 10 -25 0 -14 2 -25 5 -25 12 0 55 53 55 68 0 26 -16 46 -33 39 -10 -4 -17 3 -22 21 -8 34 -47 92 -60 91 -5 -1 -18 -3 -27 -6z"></path><path id="pSvzn57Jm" d="M1112 819 c-37 -47 -21 -54 23 -9 32 32 35 40 20 39 -11 0 -30 -13 -43 -30z"></path><path id="pWGi3C7it" d="M1245 690 c-3 -5 0 -10 8 -10 10 0 13 -7 10 -20 -5 -17 0 -20 31 -20 29 0 34 3 29 18 -12 35 -63 56 -78 32z"></path><path id="psGjQ5h1r" d="M1351 628 c5 -10 14 -18 19 -18 5 0 7 8 3 18 -3 9 -2 14 2 9 5 -4 9 -15 10 -25 2 -30 20 -23 20 8 1 27 -2 29 -31 27 -27 -2 -31 -5 -23 -19z"></path></g></g><g id="l3FN5Fh0dr7YzSxG4UojOgs" fill="rgb(139,154,153)" style="transform: none;"><g><path id="p3HyGd93Q" d="M1190 2345 c0 -20 5 -25 25 -25 30 0 34 25 6 40 -28 14 -31 13 -31 -15z"></path><path id="pjb5X9rNR" d="M1024 2246 c-8 -44 4 -96 22 -96 11 0 14 16 14 65 0 50 -3 65 -15 65 -8 0 -17 -14 -21 -34z"></path><path id="poydmdd4w" d="M1200 2235 c0 -41 5 -43 31 -12 25 31 24 47 -6 47 -22 0 -25 -4 -25 -35z"></path><path id="pt9EFM3BG" d="M1170 2105 c0 -41 11 -45 29 -11 15 26 8 46 -15 46 -9 0 -14 -11 -14 -35z"></path><path id="pK2Jq38dD" d="M1620 2075 c0 -37 24 -50 32 -17 6 27 -2 52 -18 52 -9 0 -14 -11 -14 -35z"></path><path id="pLX3NHiZv" d="M1170 1996 c0 -32 3 -36 25 -36 24 0 25 1 12 32 -19 46 -37 48 -37 4z"></path><path id="pb5MTMFcv" d="M1590 2015 c0 -10 -10 -15 -30 -15 -32 0 -38 -11 -17 -28 17 -14 56 -4 85 21 30 28 28 37 -8 37 -20 0 -30 -5 -30 -15z"></path><path id="prYp7CM4Z" d="M1460 1930 c0 -32 9 -37 28 -18 7 7 8 17 1 30 -15 27 -29 22 -29 -12z"></path><path id="p13cWpTM6c" d="M1250 1745 c0 -19 5 -35 11 -35 7 0 9 10 7 25 -3 14 -1 28 3 31 9 5 13 -17 10 -43 -1 -7 7 -13 19 -13 16 0 20 6 20 35 0 33 -2 35 -35 35 -33 0 -35 -2 -35 -35z"></path><path id="psmeBwSF7" d="M1450 1725 c0 -19 -4 -35 -10 -35 -5 0 -10 -16 -10 -35 0 -47 20 -45 44 4 12 27 16 48 11 70 -9 44 -35 41 -35 -4z"></path><path id="pPHS3Orn2" d="M937 1464 c8 -4 10 -16 6 -35 -5 -25 -2 -29 16 -29 17 0 21 6 21 35 0 32 -3 35 -27 34 -16 0 -23 -3 -16 -5z"></path><path id="pCKvaz5kt" d="M1330 1386 c0 -9 -17 -15 -52 -18 -29 -3 -70 -12 -90 -21 -32 -13 -38 -21 -38 -46 0 -35 11 -39 31 -14 21 24 73 43 116 42 l38 -1 -45 -10 c-68 -15 -100 -29 -110 -49 -12 -22 -4 -46 20 -59 15 -8 18 -4 24 30 7 42 7 43 74 40 28 -1 48 4 55 13 17 21 107 33 107 14 0 -8 9 -17 20 -20 11 -3 20 -13 20 -24 -1 -17 -1 -17 -11 0 -13 23 -29 22 -29 -2 0 -10 -7 -21 -15 -25 -9 -3 -15 -19 -15 -41 0 -33 2 -35 34 -35 52 0 66 21 66 96 l0 64 -30 0 c-27 0 -30 3 -30 34 0 32 -2 34 -46 40 -71 9 -94 7 -94 -8z m85 -36 l20 -9 -20 0 c-11 0 -29 4 -40 9 l-20 9 20 0 c11 0 29 -4 40 -9z"></path><path id="pZAHXxXbq" d="M1236 1158 c-10 -38 -7 -48 14 -48 16 0 20 7 20 35 0 40 -24 49 -34 13z"></path><path id="pD3Da8I50" d="M1016 1071 c-17 -19 -17 -23 -3 -53 8 -18 19 -45 22 -60 9 -33 21 -35 44 -7 14 18 20 19 43 8 22 -10 25 -14 13 -25 -7 -8 -15 -19 -17 -25 -2 -7 -18 -12 -35 -11 -29 1 -31 -2 -47 -61 -16 -58 -16 -62 0 -74 29 -21 38 -16 100 49 32 35 63 61 68 60 4 -2 5 13 2 33 -4 22 -3 35 4 35 5 0 10 7 10 16 0 14 6 15 33 8 17 -4 58 -7 90 -6 57 2 57 2 57 -27 0 -22 6 -31 23 -37 12 -3 30 -13 40 -22 16 -14 17 -13 17 15 0 16 7 51 16 77 16 46 16 48 -7 72 -12 13 -29 24 -36 24 -8 0 -22 7 -30 16 -13 13 -33 15 -96 12 -73 -3 -82 -6 -100 -30 l-20 -27 -48 24 c-71 36 -120 42 -143 16z m88 -37 c9 -3 16 -10 16 -16 0 -14 -43 -5 -48 10 -4 13 7 15 32 6z"></path><path id="pd0UxTcZ5" d="M1197 852 c-15 -15 -27 -37 -27 -48 1 -17 4 -16 25 9 13 15 29 27 35 27 5 0 10 9 10 20 0 27 -11 25 -43 -8z"></path></g></g><g id="lvI1O65VoLXOdTYFUWpJzW" fill="rgb(206,131,83)" style="transform: none;"><g><path id="pjlwo8585" d="M1015 1649 c-56 -29 -73 -48 -81 -92 l-6 -38 78 6 c44 4 85 8 92 10 29 10 1 135 -31 135 -7 0 -30 -9 -52 -21z"></path><path id="plUs5MrXH" d="M1570 1265 c0 -43 10 -44 33 -6 22 38 22 41 -8 41 -22 0 -25 -4 -25 -35z"></path><path id="p1UhPYGw7" d="M1073 1273 c-7 -2 -13 -12 -13 -20 0 -14 -3 -13 -20 2 -20 18 -21 18 -46 -6 l-25 -26 30 -60 c36 -70 36 -71 16 -93 -14 -16 -13 -17 23 -17 21 0 52 -8 69 -17 18 -9 37 -16 43 -16 17 0 11 43 -15 110 -14 35 -25 83 -25 107 0 42 -7 49 -37 36z"></path><path id="pjz34aK9k" d="M1460 1065 c0 -32 2 -35 30 -35 17 0 30 2 30 5 0 2 -13 18 -30 35 l-30 31 0 -36z"></path><path id="p9fd5KTtn" d="M1280 834 c0 -26 -11 -41 -45 -60 -11 -6 -26 -23 -33 -37 -9 -18 -21 -27 -37 -27 -14 0 -32 -11 -44 -26 -24 -30 -27 -48 -8 -41 42 16 57 17 57 7 0 -7 -9 -14 -19 -17 -20 -5 -41 -49 -41 -84 0 -14 7 -19 30 -19 17 0 30 -4 30 -10 0 -6 32 -10 75 -10 61 0 75 -3 75 -16 0 -12 9 -14 38 -12 33 3 37 6 39 33 3 29 2 29 -9 8 -15 -30 -20 -29 -42 8 -15 25 -22 29 -44 24 -49 -10 -106 -9 -110 3 -2 7 -12 12 -22 12 -18 0 -17 2 3 23 12 13 32 38 45 54 12 17 32 33 44 36 15 4 18 3 10 -5 -17 -17 -2 -38 28 -38 24 0 27 3 23 21 -8 31 -47 45 -80 30 l-28 -13 28 29 c15 16 27 34 27 41 0 16 67 27 84 13 7 -6 16 -8 19 -4 4 3 7 -9 7 -28 0 -19 3 -45 7 -59 6 -22 4 -23 -9 -12 -24 19 -43 -8 -23 -34 12 -16 14 -17 15 -2 0 9 -6 19 -12 21 -10 4 -10 6 -1 6 14 1 36 -36 29 -48 -3 -5 4 -17 17 -27 13 -11 18 -13 12 -4 -11 16 -11 49 1 118 4 29 3 42 -5 42 -6 0 -11 14 -11 30 0 19 -5 30 -14 30 -15 0 -26 21 -26 51 0 16 -7 19 -40 19 -36 0 -40 -2 -40 -26z"></path></g></g><g id="l5FfkSBUHkxIPf90VfAUoJf" fill="rgb(152,143,111)" style="transform: none;"><g><path id="p3QoCT0Je" d="M1125 1844 c-16 -8 -33 -21 -37 -27 -14 -21 -9 -75 7 -81 11 -4 15 -21 15 -63 -1 -55 -1 -57 -15 -33 -14 25 -14 25 -15 -16 0 -25 6 -47 15 -54 11 -9 12 -17 5 -30 -15 -29 -12 -58 6 -56 16 1 46 -68 45 -106 0 -28 25 -21 90 22 37 26 59 48 59 60 0 10 6 20 13 23 8 2 12 30 11 93 -1 100 -40 249 -70 271 -24 18 -93 16 -129 -3z m133 -193 c34 -126 33 -171 -5 -171 -10 0 -33 -9 -51 -20 -18 -11 -38 -17 -44 -14 -8 5 -9 52 -4 153 5 120 9 148 23 159 38 28 47 16 81 -107z m25 72 c-6 -16 -8 -15 -13 7 -8 31 0 48 11 27 5 -8 6 -24 2 -34z m27 -100 c0 -32 -5 -28 -14 10 -4 19 -3 26 4 22 5 -3 10 -18 10 -32z"></path><path id="p1FqdeW1Sd" d="M1363 1720 c-18 -7 -23 -17 -23 -44 0 -44 9 -66 26 -66 8 0 27 -18 42 -40 15 -21 35 -39 44 -40 16 0 17 7 11 61 -4 44 -3 63 7 69 9 6 10 15 3 36 -8 25 -15 29 -49 31 -21 1 -49 -2 -61 -7z"></path><path id="p2EgqTHGn" d="M988 1383 c-10 -2 -18 -9 -18 -14 0 -5 -9 -9 -20 -9 -24 0 -38 -26 -22 -42 7 -7 20 -5 42 8 27 17 32 17 41 4 9 -13 10 -12 5 2 -10 33 64 26 89 -9 10 -13 12 -10 12 18 0 19 -5 37 -11 41 -12 8 -89 9 -118 1z"></path><path id="paQ4qOQP5" d="M1420 1143 c0 -66 9 -83 41 -83 29 0 29 0 13 24 -8 14 -14 34 -12 46 3 20 4 20 40 -5 29 -20 38 -32 41 -62 l3 -38 8 32 c5 20 13 30 21 26 10 -3 12 2 8 18 -3 12 -14 24 -25 26 -10 3 -18 12 -18 19 0 8 -10 14 -25 14 -14 0 -25 5 -25 10 0 6 -16 10 -35 10 -34 0 -35 -1 -35 -37z"></path><path id="pPvWgzcZP" d="M1200 990 c0 -11 -5 -20 -11 -20 -14 0 -7 -82 8 -87 8 -3 14 13 19 46 4 28 9 49 13 47 4 -3 7 4 7 15 0 12 -7 19 -18 19 -11 0 -18 -7 -18 -20z"></path><path id="p1CrcvM3mG" d="M1465 920 c-17 -34 -14 -44 18 -62 20 -10 21 -10 8 5 -9 11 -12 30 -8 52 7 43 2 44 -18 5z"></path><path id="phoLh1aqm" d="M1333 893 c-7 -2 -13 -11 -13 -19 0 -8 6 -14 13 -14 6 0 20 -27 31 -60 10 -33 22 -60 27 -60 5 0 9 -9 9 -20 0 -30 27 -24 35 8 7 25 8 25 15 7 8 -18 9 -18 9 6 1 28 -15 50 -33 43 -7 -3 -18 12 -25 33 -14 38 -42 83 -51 82 -3 0 -11 -3 -17 -6z"></path><path id="pgCWd7p3k" d="M1244 883 c-12 -2 -30 -13 -40 -24 -16 -18 -16 -19 8 -19 54 0 88 12 88 31 0 19 -10 21 -56 12z"></path><path id="p1CuZPedU8" d="M1170 806 c0 -13 7 -29 15 -36 12 -10 14 -27 9 -79 -4 -48 -2 -62 5 -51 6 8 11 11 11 5 0 -5 7 1 16 13 19 28 44 29 37 2 -4 -15 0 -20 13 -20 32 0 50 16 36 33 -16 19 -73 19 -94 0 -24 -21 -22 -4 2 27 20 25 28 90 11 90 -5 0 -13 9 -16 20 -9 29 -45 26 -45 -4z"></path></g></g><g id="l3PRr41wrYYxp84rxLQ0vPg" fill="rgb(182,117,83)" style="transform: none;"><g><path id="prZwnPWDy" d="M1066 1658 c4 -6 7 -30 7 -52 0 -37 -2 -41 -26 -44 -19 -2 -27 -9 -27 -23 0 -15 7 -19 35 -19 29 0 35 -4 35 -20 0 -30 34 -10 50 30 11 25 10 33 -4 53 -9 12 -26 37 -37 55 -12 17 -25 32 -31 32 -5 0 -6 -5 -2 -12z"></path><path id="p7uJu9KvZ" d="M948 1553 c-25 -6 -21 -73 5 -73 10 0 17 8 17 20 0 13 7 20 20 20 13 0 20 7 20 20 0 20 -20 24 -62 13z"></path><path id="pxL6rm7PX" d="M1470 1435 c0 -33 2 -35 35 -35 28 0 35 4 35 20 0 15 -7 20 -25 20 -16 0 -25 6 -25 15 0 8 -4 15 -10 15 -5 0 -10 -16 -10 -35z"></path><path id="p1BNqERm2c" d="M1600 1335 c0 -39 24 -49 33 -14 7 27 -1 49 -19 49 -9 0 -14 -12 -14 -35z"></path><path id="pJF92WpHz" d="M1115 1155 c3 -16 8 -46 11 -66 l6 -37 -53 14 c-45 12 -55 12 -67 0 -11 -11 -8 -13 25 -13 21 0 58 -10 82 -22 23 -12 46 -20 49 -16 4 3 -4 36 -17 73 -28 80 -45 111 -36 67z"></path><path id="pxq10gKpk" d="M1470 1070 c0 -5 -7 -10 -15 -10 -8 0 -15 -8 -15 -18 0 -22 30 -52 52 -52 16 0 30 33 22 54 -6 16 -44 39 -44 26z"></path><path id="pbTQILL66" d="M1475 940 c-4 -16 -11 -32 -16 -35 -15 -10 -10 -22 16 -39 25 -17 25 -16 13 3 -9 15 -10 30 -2 61 6 22 8 40 3 40 -4 0 -10 -13 -14 -30z"></path><path id="pE47VaPWe" d="M1212 851 c-8 -5 -12 -23 -10 -47 2 -32 7 -40 26 -42 12 -2 22 -8 22 -13 0 -5 10 -3 23 5 42 27 107 18 107 -15 0 -14 7 -19 25 -19 18 0 25 5 25 20 0 11 -4 20 -10 20 -5 0 -10 9 -10 20 0 14 -9 21 -35 26 -28 5 -35 11 -35 30 0 23 -4 24 -57 24 -32 0 -64 -4 -71 -9z"></path><path id="p17WPbBpyj" d="M1196 723 c-8 -16 -15 -24 -16 -19 0 12 -50 -34 -50 -46 0 -5 14 -2 30 7 27 14 30 14 30 0 0 -8 -14 -24 -31 -34 -24 -15 -37 -35 -55 -87 -35 -100 -22 -124 64 -124 22 0 32 -5 32 -15 0 -8 7 -15 15 -15 9 0 17 14 21 40 9 55 31 72 26 19 -5 -51 11 -50 27 2 17 55 22 46 8 -14 -5 -26 -8 -49 -5 -52 12 -12 36 8 46 38 5 18 10 24 11 15 1 -11 9 -18 21 -18 16 0 20 6 20 28 -1 15 2 41 6 57 6 29 6 29 -10 10 l-16 -20 -16 20 c-8 11 -19 26 -23 33 -5 10 -14 10 -35 2 -40 -15 -92 -12 -106 5 -7 9 -21 13 -31 10 -11 -4 -19 -2 -19 4 0 5 9 13 20 16 11 3 20 11 20 16 0 6 -4 8 -9 4 -5 -3 -12 -1 -16 5 -6 9 8 14 28 11 4 -1 10 6 13 14 3 8 10 12 15 9 5 -3 9 2 9 11 0 8 10 20 23 25 12 5 16 9 8 9 -8 1 -23 -6 -33 -16 -22 -19 -23 -6 -3 21 17 22 20 56 5 56 -5 0 -16 -12 -24 -27z"></path><path id="pZUNGAtgz" d="M1390 666 c0 -14 5 -26 10 -26 6 0 10 7 10 15 0 8 0 18 1 22 0 4 -4 9 -10 11 -6 2 -11 -8 -11 -22z"></path><path id="psxhFVA3W" d="M1277 673 c-12 -12 -7 -33 8 -33 17 0 19 9 7 28 -5 7 -11 9 -15 5z"></path><path id="p5gCR5DVb" d="M1365 650 c3 -5 2 -10 -4 -10 -6 0 -7 -8 -4 -17 6 -15 7 -14 14 3 5 16 8 13 17 -16 8 -29 10 -31 11 -10 0 14 -6 33 -13 43 -14 18 -32 24 -21 7z"></path><path id="p12zV94kgG" d="M1217 350 c-4 -14 -7 -37 -7 -52 0 -23 4 -28 25 -28 14 0 25 -4 25 -10 0 -5 16 -10 35 -10 35 0 35 0 35 45 0 32 -4 45 -14 45 -8 0 -17 6 -20 13 -3 6 -4 -5 -3 -27 l3 -39 -23 29 c-20 25 -23 26 -23 10 0 -27 -17 -8 -22 24 l-3 25 -8 -25z"></path><path id="pySFSAFUM" d="M1380 316 c0 -24 25 -54 36 -43 3 3 3 19 -1 36 -8 37 -35 42 -35 7z"></path><path id="pAUWiteW9" d="M1050 309 c-14 -24 -9 -32 14 -23 17 7 23 44 6 44 -5 0 -14 -9 -20 -21z"></path><path id="pSHzKfm5f" d="M1300 196 c0 -27 23 -77 33 -73 6 2 17 18 24 35 11 28 11 32 -2 32 -8 0 -15 5 -15 10 0 6 -9 10 -20 10 -11 0 -20 -6 -20 -14z"></path></g></g><g id="l3Mk6CfBqLWACurfgHi7Z4r" fill="rgb(117,127,125)" style="transform: none;"><g><path id="pUCbgrZbm" d="M1140 2360 c0 -16 7 -20 35 -20 40 0 49 24 13 34 -38 10 -48 7 -48 -14z"></path><path id="pFSwDtLK0" d="M1026 2245 c-8 -33 3 -75 20 -75 10 0 14 14 14 50 0 55 -23 71 -34 25z"></path><path id="pGuEyXBS1" d="M1100 2225 c0 -33 2 -35 35 -35 33 0 35 2 35 35 0 33 -2 35 -35 35 -33 0 -35 -2 -35 -35z"></path><path id="p8dxgsQGn" d="M1016 2134 c-21 -20 -20 -27 4 -49 20 -18 20 -17 20 23 0 47 -2 49 -24 26z"></path><path id="p1GAC2YhF7" d="M1610 2015 c0 -34 1 -34 20 -18 11 10 20 25 20 35 0 11 -8 18 -20 18 -16 0 -20 -7 -20 -35z"></path><path id="pzSmGnkdj" d="M1107 1911 c-16 -10 -38 -16 -52 -13 -20 3 -25 0 -25 -15 0 -11 7 -28 15 -39 9 -12 12 -31 9 -51 -5 -25 -2 -34 14 -42 31 -17 39 -14 45 18 8 38 68 68 103 52 13 -6 26 -22 30 -36 4 -16 12 -24 19 -21 18 6 27 -21 15 -43 -11 -21 2 -78 16 -71 5 3 10 -8 11 -25 2 -29 2 -29 -7 -5 -9 22 -9 21 -5 -9 3 -18 5 -37 5 -42 0 -5 9 -9 20 -9 15 0 20 7 20 28 0 17 8 32 21 40 14 9 18 19 14 32 -5 15 0 22 20 30 34 13 42 8 51 -33 4 -19 9 -26 12 -17 3 8 12 21 20 29 9 9 12 25 8 44 -3 16 -6 42 -6 58 0 27 -3 29 -38 29 -22 0 -60 -6 -86 -14 l-47 -14 7 59 c5 49 4 59 -9 59 -8 0 -18 -10 -21 -22 -6 -23 -7 -23 -22 5 -8 15 -19 27 -24 27 -6 0 -10 7 -10 15 0 22 -87 20 -123 -4z"></path><path id="prQWVrNSy" d="M1271 1451 c-15 -20 -32 -30 -61 -35 -48 -8 -67 -39 -62 -105 l3 -43 22 21 c41 38 165 69 155 39 -3 -7 -27 -15 -55 -18 -78 -8 -117 -55 -77 -94 22 -23 34 -20 34 9 0 16 -6 25 -16 25 -8 0 -12 5 -9 10 3 6 19 10 36 10 19 0 29 5 29 15 0 8 5 15 10 15 6 0 10 -4 10 -10 0 -5 16 -10 35 -10 31 0 35 3 35 25 0 18 5 25 20 25 11 0 20 -4 20 -10 0 -5 6 -10 14 -10 13 0 19 -18 33 -97 5 -30 8 -33 43 -33 l38 0 8 66 c4 42 2 87 -5 120 -11 46 -16 54 -36 54 -14 0 -25 7 -28 19 -3 14 -20 21 -69 30 -93 16 -104 14 -127 -18z m168 -97 c9 -8 -31 -16 -54 -10 -39 10 -29 25 13 19 20 -3 39 -7 41 -9z m60 -101 c-1 -27 -3 -31 -6 -13 -2 14 -12 31 -21 38 -14 11 -13 12 6 12 19 0 22 -5 21 -37z"></path><path id="paA5HbIYa" d="M1540 1175 c0 -22 5 -35 13 -35 8 0 18 16 24 35 11 33 10 35 -13 35 -21 0 -24 -5 -24 -35z"></path><path id="ppO0stYbd" d="M1323 1155 c-18 -8 -33 -21 -33 -29 0 -9 -12 -16 -32 -18 -25 -2 -37 -10 -49 -35 -15 -31 -17 -31 -44 -17 -34 18 -36 18 -28 -3 4 -9 2 -14 -3 -11 -5 3 -32 13 -61 21 -42 13 -54 13 -62 3 -9 -11 -3 -13 26 -13 41 0 163 -56 163 -74 0 -7 -7 -8 -17 -4 -89 38 -101 40 -122 21 -27 -25 -28 -56 -1 -56 16 0 20 7 20 30 0 34 0 34 35 18 30 -14 31 -27 5 -60 -13 -18 -26 -24 -42 -21 -20 4 -24 -2 -35 -44 -7 -26 -15 -58 -19 -71 -3 -12 -2 -22 3 -22 14 0 34 47 27 64 -3 8 -1 17 5 21 7 3 8 0 5 -10 -5 -11 -2 -14 11 -8 15 5 17 2 11 -20 -11 -44 10 -39 57 13 25 27 49 50 55 50 5 0 12 21 16 46 12 88 57 134 129 134 52 0 62 -11 49 -60 -7 -31 -7 -40 1 -37 7 2 14 14 15 28 6 40 19 45 48 18 18 -17 24 -31 22 -51 -6 -38 0 -35 18 7 20 49 18 75 -10 104 -28 30 -45 81 -26 81 6 0 8 5 5 10 -9 15 -105 11 -142 -5z m-162 -292 c-9 -16 -10 -16 -11 -1 0 9 3 25 7 35 7 16 8 17 11 1 2 -10 -1 -25 -7 -35z m-45 -51 c-19 -20 -21 -4 -3 35 12 27 12 27 15 4 2 -13 -3 -31 -12 -39z"></path><path id="p7X0XXqNa" d="M1463 906 c-9 -11 -8 -17 6 -30 16 -15 17 -14 13 14 -2 17 -5 30 -6 30 0 -1 -6 -7 -13 -14z"></path><path id="pRhmXoKKn" d="M1190 846 c-24 -26 -22 -56 5 -56 10 0 15 10 15 30 0 17 5 30 10 30 6 0 10 5 10 10 0 17 -15 11 -40 -14z"></path></g></g><g id="l5eZPWmfzpMh7tLUvMwb3bA" fill="rgb(180,103,70)" style="transform: none;"><g><path id="pUrpLJlYd" d="M1075 1614 l0 -59 -40 3 c-22 1 -53 -1 -70 -6 -25 -7 -29 -13 -31 -46 l-1 -38 37 5 c21 3 47 -1 61 -9 32 -18 59 -17 59 1 0 7 6 18 14 22 16 10 36 46 36 67 0 8 -10 31 -22 49 -13 19 -28 42 -33 52 -8 13 -10 3 -10 -41z"></path><path id="pqgtez9l4" d="M1477 1464 c-11 -11 -8 -97 3 -114 8 -11 9 -7 6 15 -4 22 -2 20 8 -10 8 -22 12 -58 10 -80 -5 -39 -3 -41 29 -53 48 -17 71 -16 63 4 -3 9 3 31 15 50 26 43 28 94 4 108 -10 6 -31 22 -47 35 -18 14 -36 21 -49 18 -14 -4 -22 1 -27 14 -4 11 -11 17 -15 13z"></path><path id="pzEnmOHud" d="M1114 1163 c5 -16 8 -34 22 -100 3 -17 0 -20 -19 -17 -12 3 4 -9 36 -26 34 -18 57 -37 58 -48 1 -11 4 -8 9 8 13 40 11 60 -5 60 -8 0 -15 7 -15 15 0 17 -12 19 -26 5 -7 -7 -18 11 -33 55 -13 36 -25 65 -28 65 -2 0 -2 -8 1 -17z"></path><path id="p13rt0U3xQ" d="M1463 1068 c1 -7 -4 -12 -10 -10 -21 4 -15 -16 6 -23 15 -5 21 -17 23 -53 l3 -47 17 47 c16 45 16 48 -3 73 -22 27 -41 33 -36 13z"></path><path id="pb4iRkDX6" d="M1467 906 c-6 -14 -2 -25 15 -40 12 -12 17 -14 11 -6 -6 8 -13 26 -15 40 -3 23 -4 23 -11 6z"></path><path id="pnEWigAmr" d="M1233 863 c-24 -5 -40 -55 -30 -94 8 -31 -9 -68 -38 -79 -14 -5 -25 -14 -25 -20 0 -7 6 -8 19 0 28 15 31 13 32 -17 0 -16 3 -22 6 -15 2 6 8 10 13 7 4 -3 10 4 13 16 4 16 3 18 -9 8 -29 -24 -13 10 26 53 41 47 97 68 112 44 4 -6 8 10 8 37 0 35 -4 47 -15 47 -8 0 -15 5 -15 10 0 10 -53 11 -97 3z m36 -52 c-16 -13 -27 -16 -34 -10 -12 12 11 29 39 29 16 0 15 -2 -5 -19z"></path><path id="pi2e3AlSD" d="M1386 756 c-6 -32 -2 -68 11 -106 3 -10 10 -3 18 20 16 42 19 94 5 85 -5 -3 -10 3 -10 14 0 34 -17 24 -24 -13z"></path><path id="pbi9uVudo" d="M1280 676 c-12 -16 -6 -36 11 -36 6 0 8 10 4 23 -6 21 -6 21 9 3 9 -11 16 -15 16 -9 0 6 -6 16 -14 22 -10 9 -16 8 -26 -3z"></path><path id="pa8sZhBIm" d="M1286 508 c-26 -52 -33 -88 -18 -88 5 0 14 17 20 38 6 20 18 46 26 57 12 15 10 4 -4 -45 -25 -81 -25 -90 0 -90 16 0 20 7 20 33 0 32 2 33 30 29 26 -4 29 -2 23 14 -7 21 -62 104 -68 104 -2 0 -15 -23 -29 -52z"></path><path id="p13Y56wGJL" d="M1091 507 c-25 -63 -3 -89 79 -95 53 -4 58 -3 63 19 12 46 9 49 -28 33 -51 -21 -81 -10 -93 34 l-9 37 -12 -28z"></path><path id="pgzNrV3wE" d="M1200 315 c0 -31 3 -35 25 -35 14 0 25 -4 25 -10 0 -5 15 -10 34 -10 37 0 46 12 46 61 0 23 -4 29 -21 29 -19 0 -20 -4 -14 -36 l6 -37 -26 29 c-17 18 -25 22 -21 12 3 -10 1 -18 -4 -18 -5 0 -12 11 -16 25 -10 39 -34 31 -34 -10z"></path><path id="pV6zF1O6Z" d="M1340 305 c0 -28 4 -35 20 -35 11 0 20 5 20 11 0 8 5 8 15 -1 13 -11 15 -7 15 24 0 35 -1 36 -35 36 -33 0 -35 -2 -35 -35z"></path></g></g><g id="l2fs19BumaUHzDaUW9Q6sqe" fill="rgb(95,107,107)" style="transform: none;"><g><path id="puJLOwuho" d="M1170 2350 c0 -16 7 -20 35 -20 39 0 43 6 18 26 -27 20 -53 17 -53 -6z"></path><path id="p14U4gfPlH" d="M1036 2318 c-3 -13 -6 -40 -6 -60 0 -36 2 -38 30 -38 23 0 30 -4 30 -20 0 -17 7 -20 45 -20 l45 0 0 45 0 45 -45 0 c-33 0 -45 4 -45 15 0 8 -4 15 -10 15 -5 0 -10 9 -10 20 0 27 -26 25 -34 -2z"></path><path id="pK4oICtRI" d="M1036 1958 c-10 -38 -7 -48 14 -48 16 0 20 7 20 35 0 40 -24 49 -34 13z"></path><path id="pdUlvSe4X" d="M1113 1923 c-13 -9 -23 -26 -23 -39 0 -19 -5 -24 -25 -24 -28 0 -30 -3 -14 -29 11 -17 15 -15 50 20 21 21 50 41 64 45 39 10 81 -13 101 -54 15 -33 15 -36 0 -47 -20 -15 -21 -39 -2 -32 19 8 28 -20 15 -45 -6 -11 -8 -22 -5 -26 3 -3 6 0 6 6 0 17 101 62 145 65 31 1 40 -2 43 -16 2 -10 -4 -27 -14 -38 -13 -14 -15 -24 -8 -40 10 -21 11 -21 28 -4 13 13 16 27 12 48 -3 16 -6 42 -6 58 0 19 -5 29 -15 29 -8 0 -15 5 -15 10 0 14 -26 13 -88 -4 -44 -11 -52 -11 -52 1 0 7 -10 25 -22 39 -13 13 -31 34 -40 44 -10 11 -18 27 -18 35 0 21 -87 19 -117 -2z"></path><path id="pQ0R3wwE" d="M1050 1779 c0 -10 13 -25 30 -34 28 -15 30 -14 30 4 0 12 -12 26 -30 35 -28 13 -30 13 -30 -5z"></path><path id="pH1EWtmC8" d="M1328 1656 c-24 -18 -23 -46 2 -46 11 0 20 5 20 10 0 6 7 10 16 10 20 0 14 34 -6 37 -8 2 -23 -3 -32 -11z"></path><path id="p7lLc6REL" d="M1352 1461 c-7 -4 -16 -33 -19 -64 l-6 -57 29 0 c17 0 24 3 17 8 -8 5 -9 19 -3 46 10 44 20 59 20 28 0 -11 11 -29 25 -40 21 -17 25 -28 25 -71 0 -28 4 -51 9 -51 5 0 18 -3 28 -7 17 -6 17 -6 1 14 -20 21 -24 38 -8 28 10 -6 14 22 12 75 0 15 6 5 16 -25 13 -40 17 -45 20 -27 2 13 -2 44 -9 68 -10 34 -18 44 -34 44 -11 0 -27 9 -35 20 -15 21 -63 27 -88 11z m86 -61 c2 -24 2 -24 -9 -5 -7 11 -17 24 -23 28 -7 5 -3 7 9 5 13 -2 21 -12 23 -28z"></path><path id="p1DhO7x3yT" d="M1218 1423 c-16 -2 -28 -9 -28 -14 0 -5 -6 -9 -13 -9 -8 0 -19 -11 -25 -25 -14 -31 -4 -32 45 -5 21 11 47 20 58 20 21 0 45 17 45 32 0 8 -32 8 -82 1z"></path><path id="pd5S0UP9n" d="M1095 1340 c10 -11 19 -20 19 -20 1 0 2 9 2 20 0 13 -7 20 -20 20 -18 0 -19 -1 -1 -20z"></path><path id="pURziDZ0G" d="M1228 1303 c-33 -8 -20 -33 17 -33 28 0 35 4 35 20 0 20 -14 23 -52 13z"></path><path id="pa1hzk4WZ" d="M1500 1260 c0 -5 9 -10 21 -10 11 0 17 5 14 10 -3 6 -13 10 -21 10 -8 0 -14 -4 -14 -10z"></path><path id="p1GuiUFPtG" d="M1291 1168 c-33 -12 -55 -28 -58 -39 -3 -11 -9 -19 -14 -19 -5 0 -9 -6 -9 -14 0 -7 -11 -21 -25 -30 -17 -11 -22 -21 -18 -33 7 -17 6 -17 -18 -1 -14 9 -49 23 -77 31 -41 13 -53 13 -61 3 -9 -10 -6 -12 13 -9 13 3 52 -7 87 -22 35 -15 72 -27 82 -27 12 1 17 -8 18 -31 1 -27 3 -23 13 20 23 93 40 99 169 59 52 -16 77 -20 77 -12 0 6 -10 13 -22 13 -27 2 -109 32 -122 44 -11 10 52 39 83 39 12 0 27 -12 36 -27 l15 -28 -6 40 c-3 22 -7 46 -9 53 -7 19 -93 14 -154 -10z"></path><path id="pQwYbUOG1" d="M1070 990 c0 -15 7 -20 25 -20 14 0 25 -4 25 -9 0 -5 8 -12 18 -14 16 -4 16 -5 0 -6 -12 -1 -18 -9 -18 -26 0 -20 -5 -25 -25 -25 -16 0 -25 -6 -25 -15 0 -22 27 -30 47 -14 20 17 73 89 73 100 0 10 -82 49 -103 49 -10 0 -17 -8 -17 -20z"></path><path id="po1WZLKnB" d="M1202 910 c0 -19 2 -27 5 -17 2 9 2 25 0 35 -3 9 -5 1 -5 -18z"></path><path id="pqbDMwbUg" d="M1214 865 c-19 -14 -18 -14 4 -15 13 0 22 6 22 15 0 19 -1 19 -26 0z"></path></g></g><g id="l7IdtSPwGhkdko4kdDAxv7O" fill="rgb(89,99,98)" style="transform: none;"><g><path id="p14VfNT90l" d="M1040 2311 c-5 -11 -10 -42 -10 -69 0 -58 6 -62 111 -62 65 0 67 1 79 30 7 17 17 30 22 30 16 0 0 63 -19 78 -10 7 -48 12 -95 12 -66 0 -79 -3 -88 -19z m110 -86 c0 -8 -7 -15 -15 -15 -8 0 -15 7 -15 15 0 8 7 15 15 15 8 0 15 -7 15 -15z"></path><path id="pc7a1Lrk7" d="M1520 1994 c0 -14 34 -31 52 -26 33 8 21 32 -17 32 -19 0 -35 -3 -35 -6z"></path><path id="p18V5RyQ2M" d="M1143 1933 c-29 -4 -33 -8 -33 -34 l0 -30 29 20 c36 26 48 26 89 1 17 -11 32 -15 32 -10 0 6 -7 13 -15 16 -8 4 -15 15 -15 25 0 20 -11 21 -87 12z"></path><path id="p18HcetxD1" d="M1267 1846 c3 -5 8 -27 10 -50 2 -22 5 -49 6 -58 1 -16 2 -16 20 0 17 15 17 17 3 20 -17 4 -23 32 -6 32 6 0 10 15 10 34 0 30 -3 34 -24 32 -13 0 -22 -5 -19 -10z"></path><path id="p10A2Cg78b" d="M1051 1833 c7 -10 14 -19 14 -20 0 -1 6 7 13 17 11 18 9 20 -14 20 -24 0 -25 -2 -13 -17z"></path><path id="p8wUX13bZ" d="M1383 1817 c-34 -9 -43 -15 -43 -32 0 -22 1 -22 51 -9 36 9 57 10 70 3 15 -7 19 -6 19 6 0 8 -7 15 -15 15 -8 0 -15 7 -15 15 0 17 -6 17 -67 2z"></path><path id="pyWKv7x05" d="M1470 1701 c0 -11 -4 -23 -10 -26 -5 -3 -10 -11 -10 -17 0 -6 9 -1 20 12 22 26 25 36 10 45 -5 3 -10 -3 -10 -14z"></path><path id="pDckcTeJJ" d="M1360 1638 c0 -36 2 -38 30 -38 27 0 30 -3 30 -30 0 -25 4 -30 25 -30 14 0 25 4 25 8 0 16 -60 92 -71 92 -7 0 -18 8 -25 18 -12 15 -13 13 -14 -20z"></path><path id="pdMi2AJpA" d="M1296 1568 c-10 -40 -18 -88 -17 -105 1 -29 -2 -33 -24 -33 -18 0 -25 -5 -25 -20 0 -31 37 -25 71 12 l29 32 0 -34 c0 -19 3 -52 6 -72 6 -35 9 -38 50 -44 28 -4 44 -11 44 -20 0 -8 9 -14 20 -14 11 0 20 -7 20 -15 0 -8 -9 -15 -20 -15 -15 0 -20 -7 -20 -25 0 -20 -5 -25 -25 -25 -16 0 -25 -6 -25 -15 0 -8 6 -15 14 -15 8 0 26 -14 39 -30 l26 -30 -2 27 c-2 24 2 29 26 31 24 3 27 8 27 38 0 24 4 34 16 34 21 0 14 34 -9 38 -13 3 -17 -3 -17 -27 0 -21 -7 -34 -22 -42 -22 -12 -22 -11 -5 8 21 24 22 41 3 62 -11 13 -12 27 -4 71 7 38 7 55 -1 58 -6 2 -11 10 -11 18 0 8 -4 14 -10 14 -5 0 -10 9 -10 20 0 30 -63 28 -78 -2 -10 -23 -11 -23 -11 5 -1 15 -7 27 -14 27 -11 0 -13 18 -9 80 3 44 1 80 -4 80 -5 0 -18 -33 -28 -72z m118 -138 c22 -8 26 -16 26 -50 0 -37 -2 -40 -27 -40 -45 0 -56 13 -48 51 12 54 11 54 49 39z"></path><path id="pTSuCTK04" d="M1396 1406 c6 -16 34 -30 34 -18 0 10 -22 32 -32 32 -4 0 -5 -6 -2 -14z"></path><path id="p1G9CQEulz" d="M1178 1407 c-30 -28 -36 -47 -15 -47 25 0 49 26 45 49 l-3 23 -27 -25z"></path><path id="pnxSjICTP" d="M1491 1388 c1 -7 5 -24 9 -38 8 -24 8 -24 9 7 1 17 -3 35 -9 38 -5 3 -10 0 -9 -7z"></path><path id="pG3ir9L7v" d="M960 1372 c-23 -11 -35 -24 -35 -37 0 -23 1 -23 77 7 32 13 58 29 58 36 0 18 -59 15 -100 -6z"></path><path id="pEufuUKVb" d="M1195 1280 c-18 -20 -17 -20 18 -20 30 0 37 4 37 20 0 13 -7 20 -18 20 -11 0 -27 -9 -37 -20z"></path><path id="p12I6kr5K0" d="M1282 1169 c-28 -11 -52 -33 -52 -48 0 -15 6 -14 78 11 34 13 62 28 62 35 0 15 -53 16 -88 2z"></path><path id="p91lrchyj" d="M1530 1122 c0 -10 5 -23 11 -29 16 -16 41 9 33 31 -9 22 -44 21 -44 -2z"></path><path id="pY7ZdFFP5" d="M1016 1072 c-3 -4 5 -9 18 -10 12 -1 42 -8 66 -17 25 -9 40 -12 35 -6 -15 14 -114 41 -119 33z"></path><path id="p1FrNs1iD3" d="M1179 1060 c-13 -10 -19 -19 -13 -20 6 0 19 9 29 20 23 26 14 26 -16 0z"></path><path id="pUCzGqXIs" d="M1164 1015 c10 -8 23 -12 28 -9 13 8 5 14 -23 19 -23 4 -23 4 -5 -10z"></path><path id="pgIuI5CVa" d="M1100 980 c0 -15 7 -20 25 -20 16 0 25 -6 25 -15 0 -8 -8 -15 -18 -15 -25 0 -52 -31 -52 -58 0 -32 18 -27 56 14 55 58 58 69 25 93 -37 27 -61 27 -61 1z"></path><path id="p1GgCWjGvH" d="M1330 894 c-8 -2 -32 -5 -52 -9 -24 -4 -38 -11 -38 -20 0 -16 26 -18 99 -7 41 7 42 8 25 23 -11 8 -26 14 -34 13z"></path><path id="pFC32vpKg" d="M1180 791 c0 -5 7 -17 16 -25 8 -9 12 -20 9 -26 -3 -5 1 -10 9 -10 12 0 16 10 16 35 0 31 -3 35 -25 35 -14 0 -25 -4 -25 -9z"></path><path id="pFcRj1CbQ" d="M1275 670 c-4 -6 -3 -16 3 -22 13 -13 23 4 13 21 -7 10 -10 10 -16 1z"></path></g></g><g id="l657zjTC5lwEgWZPPLcB7n7" fill="rgb(79,88,88)" style="transform: none;"><g><path id="pFbZpG025" d="M1073 2370 c-30 -12 -61 -130 -34 -130 5 0 7 9 4 20 -4 15 2 22 22 30 61 23 148 4 175 -37 9 -15 10 -12 6 16 -3 18 -6 44 -6 56 0 40 -107 69 -167 45z"></path><path id="pQtfjXMLo" d="M1050 2204 c0 -21 5 -24 35 -24 22 0 35 5 35 13 0 8 -16 18 -35 24 -33 11 -35 10 -35 -13z"></path><path id="poKwM83Cp" d="M1215 2220 c-3 -5 -24 -10 -46 -10 -32 0 -39 -3 -39 -20 0 -16 7 -20 33 -20 26 0 36 6 50 30 16 27 18 45 2 20z"></path><path id="p1AUuBbnNP" d="M1418 2123 c-28 -7 -22 -33 7 -33 22 0 25 -4 25 -35 0 -34 1 -35 40 -35 l40 0 0 40 c0 38 -2 40 -30 40 -20 0 -30 5 -30 15 0 15 -17 17 -52 8z"></path><path id="p1AMmEZtlF" d="M1320 2074 c-9 -3 -21 -13 -28 -24 -11 -18 -10 -20 18 -20 25 0 30 4 30 25 0 14 -1 24 -2 24 -2 -1 -10 -3 -18 -5z"></path><path id="pGPaUkoxg" d="M1510 1993 c0 -13 9 -19 35 -20 29 -3 35 0 35 17 0 16 -7 20 -35 20 -27 0 -35 -4 -35 -17z"></path><path id="pv7Cp5W1J" d="M1064 1886 c-3 -8 -4 -26 -2 -41 l3 -26 40 40 39 41 -37 0 c-23 0 -40 -5 -43 -14z"></path><path id="pf7aAIGji" d="M1261 1855 c12 -20 19 -44 16 -56 -3 -12 -1 -31 5 -44 l10 -22 42 22 c22 13 58 26 79 29 49 9 51 36 2 36 -19 0 -35 -4 -35 -10 0 -5 -15 -10 -34 -10 -37 0 -45 11 -47 63 -1 24 -3 26 -6 10 -5 -28 -20 -30 -28 -3 -3 11 -10 20 -15 20 -5 0 0 -16 11 -35z"></path><path id="peiaThouX" d="M1316 1638 c-13 -43 -13 -58 0 -58 9 0 14 12 14 35 0 35 -7 46 -14 23z"></path><path id="p8s4mtUzd" d="M1277 1490 c-10 -16 -31 -37 -47 -47 -17 -9 -30 -20 -30 -24 0 -3 19 -9 43 -12 52 -8 67 8 67 70 0 51 -9 54 -33 13z"></path><path id="pZZPeJtF3" d="M1330 1405 c0 -22 5 -35 13 -35 8 0 18 16 24 35 11 33 10 35 -13 35 -21 0 -24 -5 -24 -35z"></path><path id="pjJ9M1IsR" d="M1439 1383 c3 -45 1 -47 -46 -43 -17 1 -23 -4 -23 -19 0 -15 6 -21 23 -21 12 0 32 -3 44 -6 19 -5 22 0 34 53 l12 58 18 -55 c15 -49 17 -51 18 -23 1 47 -16 77 -52 88 l-32 10 4 -42z"></path><path id="pOmVkXF8Y" d="M1238 1303 c-33 -8 -20 -33 17 -33 28 0 35 4 35 20 0 20 -14 23 -52 13z"></path><path id="p6jQORHac" d="M1470 1251 c0 -16 -6 -21 -25 -21 -21 0 -25 -5 -25 -30 0 -16 -4 -30 -10 -30 -5 0 -10 5 -10 10 0 6 -16 10 -35 10 -29 0 -35 -4 -35 -21 0 -19 4 -20 42 -14 36 6 43 4 59 -16 16 -21 19 -22 19 -5 0 12 5 16 15 12 8 -3 22 -9 30 -12 11 -4 15 0 15 16 0 25 -20 48 -38 42 -17 -5 -15 15 3 22 17 6 20 42 5 51 -5 3 -10 -3 -10 -14z"></path><path id="pqbThHXwV" d="M1507 1264 c-16 -16 -7 -44 14 -44 15 0 20 5 17 22 -3 22 -19 33 -31 22z"></path><path id="piqET0XPO" d="M1536 1099 c16 -18 19 -19 22 -5 2 9 8 14 13 11 5 -4 9 -1 9 4 0 6 -14 11 -32 11 -31 0 -31 0 -12 -21z"></path><path id="pAyOaxTpw" d="M1140 933 c0 -35 0 -36 20 -18 11 10 20 26 20 37 0 11 -7 18 -20 18 -16 0 -20 -7 -20 -37z"></path><path id="pQ3qGHAFs" d="M1176 824 c-7 -17 10 -54 24 -54 6 0 10 16 10 35 0 37 -22 49 -34 19z"></path></g></g><g id="l7WGTMBKXlW2OOFteS8Hnkt" fill="rgb(72,80,80)" style="transform: none;"><g><path id="p1G5dS8j2z" d="M1074 2370 c-12 -4 -24 -16 -28 -26 -6 -17 -6 -17 11 -2 47 42 173 22 173 -27 0 -22 -1 -22 -37 -9 -43 15 -102 18 -121 5 -8 -4 11 -8 45 -8 71 -1 110 -16 124 -45 8 -20 9 -18 4 11 -3 18 -5 44 -5 56 0 40 -107 69 -166 45z"></path><path id="pgnwEexKU" d="M1030 2233 c0 -23 4 -45 10 -48 5 -3 42 -9 81 -12 63 -5 74 -4 85 12 17 23 18 39 3 29 -13 -8 -104 -7 -131 2 -10 3 -25 17 -33 32 l-14 27 -1 -42z"></path><path id="pkgGao8xj" d="M1447 2093 c-4 -3 -7 -27 -7 -53 0 -60 27 -89 64 -72 14 6 41 8 61 5 32 -5 40 -2 61 22 32 38 32 78 -1 93 -28 13 -167 17 -178 5z"></path><path id="p1GdVg4RWM" d="M1133 1943 c-7 -2 -13 -11 -13 -19 0 -8 -9 -14 -20 -14 -11 0 -20 -7 -20 -15 0 -8 -7 -15 -15 -15 -9 0 -15 -9 -15 -24 0 -33 16 -41 32 -16 22 35 85 73 113 68 21 -4 25 -1 25 18 0 21 -5 24 -37 23 -21 0 -44 -3 -50 -6z"></path><path id="p1611ZeAq" d="M1403 1823 c-25 -3 -33 -9 -33 -25 0 -18 4 -20 31 -14 17 3 35 6 40 6 5 0 9 9 9 20 0 11 -3 19 -7 18 -5 0 -23 -3 -40 -5z"></path><path id="p17b7itqKr" d="M1280 1760 c12 -23 19 -24 43 -6 25 20 21 26 -18 26 -33 0 -35 -2 -25 -20z"></path><path id="pl8kcSOap" d="M1290 1453 c1 -34 2 -36 14 -20 20 25 26 21 26 -18 0 -24 5 -35 15 -35 8 0 15 7 15 15 0 8 9 24 20 35 l20 20 -20 0 c-13 0 -20 7 -20 20 0 16 -7 20 -35 20 -34 0 -35 -1 -35 -37z"></path><path id="p3OjoEpbW" d="M1424 1427 c20 -14 26 -79 8 -85 -7 -2 -12 -21 -12 -43 0 -35 3 -39 25 -39 20 0 25 -5 25 -26 0 -14 4 -23 10 -19 15 9 12 36 -6 57 -15 15 -15 25 -5 75 14 72 14 73 -4 73 -8 0 -15 5 -15 10 0 6 -10 10 -22 10 -20 0 -21 -1 -4 -13z"></path><path id="phwvyiqAZ" d="M1172 1398 c-7 -7 -12 -20 -12 -30 0 -16 3 -16 35 3 19 12 35 25 35 30 0 13 -44 11 -58 -3z"></path><path id="pcIPA1SlZ" d="M1040 1378 c1 -7 16 -20 35 -29 l35 -16 0 28 c0 26 -3 29 -35 29 -22 0 -35 -5 -35 -12z"></path><path id="p12bclGoO3" d="M1180 1252 c0 -11 9 -27 20 -37 20 -18 20 -17 20 18 0 30 -4 37 -20 37 -13 0 -20 -7 -20 -18z"></path><path id="pbUjxf6lw" d="M1506 1255 c-11 -30 -6 -45 15 -45 16 0 20 5 17 27 -3 31 -23 41 -32 18z"></path><path id="pFasd8ZjC" d="M1308 1183 c-10 -2 -18 -11 -18 -18 0 -8 -12 -15 -27 -17 -18 -2 -29 -10 -31 -22 -4 -21 -6 -21 96 16 67 25 83 49 30 47 -18 -1 -41 -3 -50 -6z"></path><path id="p4QHgZ1OJ" d="M1056 988 c-22 -31 -20 -38 9 -38 21 0 25 5 25 30 0 36 -13 38 -34 8z"></path><path id="pa8X68i5Y" d="M1191 844 c-23 -29 -20 -44 10 -44 15 0 19 7 19 35 0 19 -2 35 -4 35 -3 0 -14 -12 -25 -26z"></path></g></g><g id="l53kLqYENrkTuQM7jmB8SZI" fill="rgb(121,58,40)" style="transform: none;"><g><path id="p11PPForFt" d="M948 1499 c-10 -5 -18 -17 -18 -25 0 -13 9 -14 55 -9 38 5 55 4 55 -4 0 -6 11 -11 25 -11 35 0 32 26 -5 45 -33 17 -87 19 -112 4z"></path><path id="pAjmivFC3" d="M1460 1425 c0 -42 13 -60 23 -32 2 6 10 -8 17 -33 9 -29 15 -39 18 -27 2 10 -1 31 -6 45 -6 15 -14 42 -17 60 -10 50 -35 41 -35 -13z"></path><path id="pTN93gv6T" d="M1540 1434 c0 -6 20 -24 45 -42 25 -17 45 -27 45 -22 0 5 -10 15 -22 21 -13 6 -33 21 -45 32 -13 11 -23 16 -23 11z"></path><path id="pyez85DJF" d="M1507 1251 c-5 -21 27 -41 68 -41 31 0 32 15 3 34 -42 26 -65 28 -71 7z"></path><path id="pjXdtSKkq" d="M1218 863 c-12 -3 -18 -14 -18 -33 0 -16 -5 -32 -11 -35 -7 -5 -5 -13 6 -25 12 -13 13 -23 5 -44 -5 -15 -10 -44 -9 -64 1 -38 3 -36 13 9 9 40 66 95 109 103 25 5 37 3 37 -5 0 -6 6 -9 14 -6 10 4 16 -7 21 -41 3 -26 9 -56 12 -67 5 -18 6 -18 15 4 15 42 20 91 9 91 -6 0 -11 8 -11 17 0 34 -24 82 -47 92 -23 11 -111 13 -145 4z m103 -33 c5 0 9 -5 9 -11 0 -7 -9 -9 -23 -5 -14 3 -33 -1 -46 -10 -24 -18 -37 -13 -28 10 6 15 42 26 65 20 8 -2 18 -4 23 -4z"></path><path id="pILmoo3jx" d="M1272 661 c2 -7 7 -12 11 -12 12 1 9 15 -3 20 -7 2 -11 -2 -8 -8z"></path><path id="pyu1sJ3nc" d="M1286 498 c-23 -47 -35 -90 -20 -76 14 14 62 128 54 128 -4 0 -20 -23 -34 -52z"></path><path id="pmtOaQuQ2" d="M1088 490 c-30 -80 -31 -91 -12 -83 13 5 16 2 12 -8 -3 -8 -15 -38 -27 -66 -11 -29 -17 -53 -12 -53 4 0 24 11 44 24 25 17 38 21 46 13 14 -14 14 -72 1 -98 -16 -28 11 -25 49 6 l30 26 40 -21 c42 -21 48 -34 53 -125 l3 -40 33 77 c17 42 32 94 32 115 l0 38 21 -25 20 -25 -6 60 c-9 85 -23 134 -51 183 -14 23 -27 42 -29 42 -2 0 -14 -32 -26 -71 -16 -54 -20 -84 -15 -127 l6 -57 -25 30 c-15 19 -22 23 -18 11 4 -13 2 -17 -8 -14 -10 4 -14 25 -14 86 0 45 -2 82 -5 82 -3 0 -18 -7 -34 -15 -41 -22 -79 -2 -86 45 l-6 35 -16 -45z"></path></g></g><g id="l1vHobuW4vLn72zg3Bs4Ujs" fill="rgb(71,68,68)" style="transform: none;"><g><path id="pmUgLplcQ" d="M1070 2190 c0 -17 7 -20 40 -20 45 0 57 23 18 34 -42 11 -58 7 -58 -14z"></path><path id="p99ItpSak" d="M1178 2203 c-15 -4 -18 -16 -18 -74 0 -49 4 -69 13 -69 17 0 40 61 27 74 -5 5 -4 22 5 43 14 34 12 36 -27 26z"></path><path id="pXJ8ULxQj" d="M1580 2124 c0 -21 5 -24 37 -24 35 0 36 1 19 19 -10 10 -26 21 -37 24 -15 4 -19 0 -19 -19z"></path><path id="px27hB7SJ" d="M1010 2112 c0 -4 6 -20 13 -35 17 -38 37 -34 37 8 0 31 -3 35 -25 35 -14 0 -25 -4 -25 -8z"></path><path id="p5k7I8ZWJ" d="M1160 2015 c0 -30 3 -35 24 -35 23 0 24 2 13 35 -6 19 -16 35 -24 35 -8 0 -13 -13 -13 -35z"></path><path id="pAlxZiKB3" d="M1352 1633 c2 -28 8 -39 22 -41 28 -6 40 -21 55 -69 10 -31 20 -43 34 -43 17 0 18 5 12 37 -8 43 -56 119 -73 116 -6 -2 -16 6 -22 17 -17 32 -31 23 -28 -17z"></path><path id="ptgqw7XB" d="M1296 1548 c-10 -38 -7 -48 14 -48 16 0 20 7 20 35 0 40 -24 49 -34 13z"></path><path id="pCo9IVZwK" d="M958 1499 c-29 -16 -21 -29 17 -29 28 0 35 4 35 20 0 22 -24 26 -52 9z"></path><path id="pd78aCnT9" d="M1336 1454 c-3 -9 -6 -44 -6 -78 l0 -63 -51 -6 c-57 -7 -99 -29 -99 -52 0 -8 16 -32 36 -52 l36 -38 -3 42 c-2 24 1 47 7 53 7 7 9 -9 6 -50 -6 -88 -2 -94 50 -70 59 27 103 26 122 -2 13 -18 16 -19 16 -5 0 23 16 22 51 -4 l29 -20 0 30 c0 24 -4 31 -19 31 -18 0 -19 2 -5 28 7 15 14 38 13 52 -1 24 -1 24 -11 -5 -14 -40 -27 -55 -47 -54 -12 0 -11 4 7 16 27 19 28 44 3 67 -18 16 -18 21 -4 73 15 57 11 102 -10 115 -7 4 -35 8 -63 8 -38 0 -53 -4 -58 -16z m87 -26 c20 -16 30 -58 18 -77 -11 -18 -63 -23 -73 -8 -12 19 -9 72 4 85 15 15 30 15 51 0z"></path><path id="pY2Q4c9Af" d="M1194 1416 l-29 -25 40 -1 c22 0 50 3 63 6 27 8 30 34 3 34 -11 0 -26 3 -34 6 -8 3 -27 -6 -43 -20z"></path><path id="pNxQ7NbN9" d="M980 1366 c0 -23 2 -24 35 -13 19 6 35 16 35 24 0 8 -13 13 -35 13 -30 0 -35 -3 -35 -24z"></path><path id="pJAZoWxt8" d="M1060 1374 c0 -3 10 -14 22 -24 17 -13 25 -15 30 -7 15 24 8 37 -22 37 -16 0 -30 -3 -30 -6z"></path><path id="p1874ElwAC" d="M920 1337 c0 -22 11 -27 31 -14 26 16 24 27 -6 27 -14 0 -25 -6 -25 -13z"></path><path id="p9Pu54f5q" d="M1540 1115 c0 -14 5 -25 10 -25 6 0 10 5 10 11 0 5 5 7 12 3 8 -5 9 -2 5 10 -4 10 -7 20 -7 22 0 2 -7 4 -15 4 -9 0 -15 -9 -15 -25z"></path><path id="pMExwOtar" d="M1050 975 c-17 -21 -6 -84 20 -109 l20 -20 40 39 c49 48 59 74 34 92 -25 18 -98 17 -114 -2z"></path><path id="phwVS9IVX" d="M1250 880 c-40 -10 -80 -54 -73 -81 3 -11 9 -19 13 -19 22 0 40 14 40 30 0 30 77 41 104 14 18 -17 56 -11 56 9 0 7 -7 23 -16 35 -16 24 -56 28 -124 12z"></path></g></g><g id="lEqkNcZQ5PKlWaSGC50zrY" fill="rgb(57,63,63)" style="transform: none;"><g><path id="pmKlOiH4h" d="M1230 2305 c4 -25 10 -49 15 -53 4 -4 5 4 2 18 -4 14 -7 37 -7 53 0 15 -4 27 -8 27 -5 0 -6 -20 -2 -45z"></path><path id="peRRMGnyA" d="M1030 2233 c0 -29 3 -33 28 -33 23 1 25 2 11 13 -8 7 -21 21 -27 32 -10 18 -11 17 -12 -12z"></path><path id="pkLO7iiWc" d="M1470 2136 l-35 -13 0 -66 c0 -60 3 -69 29 -94 16 -16 26 -23 22 -16 -4 7 3 14 15 18 21 7 20 7 -6 35 -40 41 -31 64 27 68 59 4 108 -19 108 -51 0 -18 2 -19 10 -7 5 8 10 34 10 58 0 37 -4 45 -32 62 -37 23 -95 25 -148 6z"></path><path id="ptAKGTSxG" d="M1180 1931 c0 -5 16 -18 35 -30 19 -11 35 -16 35 -11 0 6 -4 10 -10 10 -5 0 -10 9 -10 20 0 15 -7 20 -25 20 -14 0 -25 -4 -25 -9z"></path><path id="p1BCm5jEt6" d="M1090 1895 c0 -20 -5 -25 -25 -25 -27 0 -34 -21 -12 -37 8 -6 27 5 61 39 l49 48 -36 0 c-33 0 -37 -3 -37 -25z"></path><path id="pC1PwR0qM" d="M1285 1857 c-11 -13 -11 -89 0 -106 14 -24 25 3 25 60 0 59 -6 69 -25 46z"></path><path id="pjNnEnwwG" d="M1410 1810 c0 -13 7 -20 20 -20 13 0 20 7 20 20 0 13 -7 20 -20 20 -13 0 -20 -7 -20 -20z"></path><path id="p3XCVEKU7" d="M1330 1786 c0 -23 2 -24 35 -13 19 6 35 16 35 24 0 8 -13 13 -35 13 -30 0 -35 -3 -35 -24z"></path><path id="pX2B9wbfs" d="M1332 1654 c-30 -21 -28 -34 8 -34 25 0 30 4 30 25 0 29 -7 31 -38 9z"></path><path id="pTvCvEQei" d="M1253 1459 c-40 -35 -40 -39 -8 -39 14 0 25 -4 25 -10 0 -19 16 -10 34 21 10 17 20 28 23 25 3 -3 7 -31 8 -63 3 -56 4 -58 31 -61 27 -3 28 -2 10 11 -14 10 -18 23 -14 50 3 26 0 37 -9 37 -7 0 -13 9 -13 20 0 14 -7 20 -24 20 -13 0 -26 4 -28 9 -1 5 -18 -4 -35 -20z"></path><path id="p13i5YFBka" d="M1444 1404 c3 -9 6 -24 6 -35 0 -28 15 -23 26 9 10 27 11 27 27 -23 10 -30 15 -38 13 -20 -9 60 -24 85 -52 85 -20 0 -25 -4 -20 -16z"></path><path id="p1845C5lfL" d="M1150 1370 c-8 -16 -8 -20 3 -20 8 0 22 9 32 20 18 19 17 20 -3 20 -12 0 -26 -9 -32 -20z"></path><path id="pjrua4ufw" d="M1240 1136 c0 -25 1 -26 31 -14 41 17 41 32 2 36 -30 3 -33 1 -33 -22z"></path><path id="pGRnt4mt7" d="M1067 1003 c-18 -17 -5 -33 28 -33 40 0 49 24 13 34 -29 7 -33 7 -41 -1z"></path><path id="pFsHkrgbB" d="M1230 873 c-16 -6 -49 -43 -50 -55 0 -5 11 -8 25 -8 14 0 25 5 25 11 0 5 -5 7 -12 3 -7 -4 -8 -3 -4 4 4 6 13 9 21 5 11 -4 15 2 15 21 0 14 -1 26 -2 25 -2 0 -10 -3 -18 -6z"></path></g></g><g id="l27KV8RYvGaGruQdTDBy9g4" fill="rgb(62,60,60)" style="transform: none;"><g><path id="pOSEMs3NR" d="M1030 2206 c0 -28 6 -48 16 -57 20 -17 160 -27 150 -10 -4 6 0 23 8 38 l14 28 -39 -3 c-56 -6 -107 6 -130 29 -19 19 -19 19 -19 -25z"></path><path id="pWQ3SuHL2" d="M1037 2113 c-11 -3 -16 -11 -13 -21 2 -9 7 -31 11 -49 l6 -32 52 6 c77 9 97 19 97 47 0 13 3 31 6 40 5 14 -4 16 -67 15 -41 -1 -82 -3 -92 -6z"></path><path id="p1FXBRdbhT" d="M1280 1968 c0 -30 13 -58 26 -58 9 0 14 12 14 35 0 28 -4 35 -20 35 -11 0 -20 -6 -20 -12z"></path><path id="poKnOxJzN" d="M1160 1929 c0 -11 4 -18 9 -15 5 4 21 2 35 -4 24 -9 26 -7 26 15 0 22 -4 25 -35 25 -29 0 -35 -4 -35 -21z"></path><path id="pDIWQmC1Q" d="M1028 1923 c-7 -26 16 -88 33 -88 8 0 15 10 17 23 2 12 -1 22 -7 22 -6 0 -11 14 -11 30 0 33 -24 42 -32 13z"></path><path id="p1F3XoCKFh" d="M1360 1800 c0 -21 10 -24 48 -14 36 10 27 34 -13 34 -28 0 -35 -4 -35 -20z"></path><path id="pU9MYtnkh" d="M1352 1623 c3 -33 7 -38 31 -41 15 -2 27 -9 27 -18 0 -8 10 -14 25 -14 28 0 26 15 -8 63 -15 22 -22 26 -28 15 -7 -10 -10 -8 -15 10 -4 12 -13 22 -21 22 -10 0 -13 -10 -11 -37z"></path><path id="p1BQqTnlHw" d="M1317 1643 c-11 -10 -8 -53 3 -53 6 0 10 14 10 30 0 31 -2 35 -13 23z"></path><path id="p2fejg6AH" d="M1292 1521 c-7 -21 -24 -50 -38 -65 l-27 -26 33 0 c19 0 41 7 51 16 16 15 18 13 23 -28 4 -23 5 -56 3 -73 -2 -27 -7 -30 -56 -40 -81 -15 -102 -57 -55 -108 24 -26 25 -31 14 -53 -19 -34 -9 -37 43 -15 26 11 65 25 88 31 22 6 39 13 37 16 -3 2 -28 -2 -56 -10 -32 -8 -55 -9 -58 -4 -3 5 -3 30 1 56 12 87 8 84 88 80 l72 -3 11 50 c7 31 16 49 24 47 8 -2 10 3 6 13 -3 9 -6 21 -6 26 0 5 -17 9 -37 9 -26 0 -33 -3 -24 -9 19 -13 20 -81 0 -94 -23 -15 -75 13 -71 38 7 49 13 65 27 65 8 0 15 5 15 10 0 6 -7 10 -15 10 -8 0 -15 5 -15 10 0 6 -17 11 -37 11 -21 1 -30 3 -20 6 12 3 17 15 17 39 0 47 -24 44 -38 -5z"></path><path id="pGZtbzD24" d="M958 1498 c-27 -9 -40 -38 -18 -38 12 0 4 -75 -12 -107 -17 -35 -2 -39 47 -15 50 24 86 28 116 12 16 -9 19 -7 19 15 0 14 -3 25 -7 25 -5 0 -13 11 -20 25 -6 14 -7 25 -2 25 5 0 9 8 9 19 0 11 -13 25 -34 35 -38 18 -59 19 -98 4z"></path><path id="pku4tJJkw" d="M1165 1389 c-14 -17 -24 -33 -21 -36 2 -2 21 5 42 16 21 12 44 21 51 21 7 0 13 7 13 15 0 29 -56 18 -85 -16z"></path><path id="pjqQhDkvn" d="M1503 1237 c-4 -18 -19 -36 -31 -42 -27 -12 -28 -31 -2 -45 17 -9 20 -8 20 8 0 10 11 25 25 32 17 9 25 22 25 41 0 40 -26 44 -37 6z"></path><path id="p8FlcR9qK" d="M1051 976 c-7 -12 -11 -34 -8 -47 4 -22 4 -22 6 4 0 17 7 27 16 27 8 0 15 9 15 20 0 27 -14 25 -29 -4z"></path><path id="pFamsuwac" d="M1090 976 c0 -8 13 -17 30 -21 27 -6 29 -9 19 -28 -6 -12 -23 -32 -37 -44 -14 -12 -23 -25 -19 -29 9 -10 85 63 93 90 4 13 0 24 -12 33 -24 18 -74 17 -74 -1z"></path><path id="pAtoso7f8" d="M1271 880 c-59 -9 -90 -36 -91 -77 0 -18 6 -23 25 -23 20 0 25 5 25 26 0 14 -4 23 -8 20 -5 -3 -9 1 -9 9 0 12 3 12 15 2 11 -8 16 -9 19 -1 5 14 86 1 91 -15 2 -6 10 -11 17 -11 16 0 25 43 13 64 -10 17 -15 18 -97 6z m56 -26 c-3 -3 -16 -4 -29 -2 l-23 5 25 10 c23 10 41 1 27 -13z"></path></g></g><g id="l6omVLJfmUzyZOrMZZtNqwy" fill="rgb(48,46,46)" style="transform: none;"><g><path id="p127oiLPQE" d="M1195 2358 c11 -6 26 -18 33 -26 11 -14 12 -14 12 -1 0 9 -11 21 -25 27 -33 15 -47 15 -20 0z"></path><path id="p1FWXNCo1" d="M1030 2198 c0 -32 -4 -58 -10 -58 -15 0 -12 -48 3 -53 8 -2 12 -35 13 -113 1 -136 12 -168 45 -127 21 25 90 73 105 73 7 0 30 -15 50 -32 30 -27 35 -29 25 -10 -6 12 -16 22 -21 22 -6 0 -10 9 -10 20 0 12 -9 38 -20 60 -22 43 -26 110 -8 128 8 8 8 15 -1 26 -7 8 -11 19 -8 23 3 4 -14 7 -36 5 -54 -3 -88 15 -109 58 l-17 35 -1 -57z m135 -119 c-13 -20 -53 -29 -87 -17 -28 10 -30 12 -12 19 30 12 106 11 99 -2z"></path><path id="pjJao0H0b" d="M1485 2140 c-13 -5 -14 -9 -5 -9 8 0 24 4 35 9 13 5 14 9 5 9 -8 0 -24 -4 -35 -9z"></path><path id="pnbdqsjbX" d="M1575 2138 c17 -6 40 -20 53 -31 12 -11 22 -15 22 -9 0 16 -60 52 -85 51 -14 0 -12 -3 10 -11z"></path><path id="p1FKrszbHB" d="M1443 2114 c-7 -7 -13 -36 -13 -64 0 -47 -10 -63 -25 -40 -3 6 -22 10 -41 10 -33 0 -34 -1 -34 -43 0 -52 20 -83 67 -102 44 -19 53 -19 53 0 0 8 9 19 21 26 15 7 20 18 16 34 -2 15 1 26 11 30 12 5 11 10 -7 29 -15 16 -24 40 -27 77 -3 29 -6 54 -7 55 -1 1 -8 -4 -14 -12z"></path><path id="p12gvXcPdA" d="M1290 1865 c0 -8 -4 -15 -9 -15 -5 0 -7 -9 -4 -20 3 -11 14 -20 24 -20 15 0 19 7 19 35 0 24 -5 35 -15 35 -8 0 -15 -7 -15 -15z"></path><path id="pzaYUNYfa" d="M1385 1823 c-57 -12 -105 -36 -105 -52 0 -29 11 -31 51 -10 21 10 56 23 76 27 24 5 39 14 41 25 4 17 -16 20 -63 10z"></path><path id="p1kYsB2lH" d="M1333 1652 c-15 -12 -24 -33 -28 -67 -10 -80 -33 -122 -81 -150 -40 -23 -89 -73 -80 -82 2 -2 19 5 37 16 19 11 50 22 69 26 25 4 40 15 53 36 25 44 37 27 37 -51 l0 -69 38 -6 c20 -3 45 -8 54 -10 10 -1 19 4 22 14 3 9 10 36 16 60 9 32 14 41 21 30 12 -20 1 55 -17 110 -7 24 -26 64 -41 89 -23 40 -27 44 -34 27 -7 -20 -7 -20 -14 0 -4 11 -9 26 -11 33 -5 16 -15 15 -41 -6z m102 -228 c20 -20 16 -73 -6 -87 -12 -7 -26 -7 -48 3 -29 12 -31 15 -25 49 4 20 9 39 11 44 8 13 51 7 68 -9z"></path><path id="p15jLPEXkG" d="M1040 1450 c0 -37 4 -52 16 -57 9 -3 13 -12 9 -21 -3 -9 -3 -13 1 -10 3 4 13 0 21 -8 8 -8 19 -12 24 -9 14 9 11 35 -6 41 -10 4 -15 20 -15 44 0 33 -23 70 -43 70 -4 0 -7 -23 -7 -50z"></path><path id="p12s7GgeF5" d="M1502 1370 c0 -8 4 -26 8 -40 6 -20 8 -21 8 -5 0 11 -3 29 -8 40 -5 12 -8 14 -8 5z"></path><path id="pWdnbWu4R" d="M1279 1303 c-15 -2 -37 -15 -50 -29 -21 -23 -22 -27 -9 -57 7 -18 13 -47 13 -64 0 -18 5 -33 11 -33 6 0 40 12 76 26 58 22 56 25 -6 8 -29 -8 -35 20 -19 95 7 34 12 60 11 60 0 -1 -13 -4 -27 -6z"></path><path id="pICDPrjKI" d="M1510 1229 c0 -32 -3 -40 -15 -35 -8 3 -22 -2 -31 -12 -16 -15 -16 -17 1 -27 10 -5 33 -23 51 -38 27 -23 36 -26 47 -16 7 7 11 25 9 41 -3 16 3 39 13 54 19 30 15 37 -37 59 l-38 15 0 -41z"></path><path id="pomiZB09F" d="M1060 990 c-10 -18 -8 -20 17 -20 15 -1 41 -7 57 -13 l30 -13 -38 -42 c-21 -23 -34 -42 -28 -42 14 0 82 80 82 97 0 13 -33 31 -87 47 -16 5 -25 2 -33 -14z"></path><path id="pfql6ONM9" d="M1308 839 c17 -5 32 -14 32 -19 0 -6 7 -10 17 -10 14 0 14 2 -2 20 -11 12 -30 20 -49 19 l-31 -1 33 -9z"></path><path id="pmXKErHRe" d="M1198 813 c-22 -5 -23 -26 -3 -43 19 -16 35 -4 35 26 0 24 -2 25 -32 17z"></path></g></g><g id="l2avCIPnohke5JYZh0x8THb" fill="rgb(32,31,33)" style="transform: none;"><g><path id="p7aAxZ4Aq" d="M1190 2366 c0 -2 11 -11 25 -20 14 -9 25 -13 25 -8 0 5 -11 14 -25 20 -14 6 -25 10 -25 8z"></path><path id="p18AamIIwU" d="M1518 2143 c12 -2 32 -2 45 0 12 2 2 4 -23 4 -25 0 -35 -2 -22 -4z"></path><path id="pvASrcCjc" d="M1605 2128 c11 -6 25 -19 32 -27 8 -10 12 -11 13 -4 0 13 -38 43 -55 43 -5 0 -1 -6 10 -12z"></path><path id="peDNAULK8" d="M1420 2123 c-14 -3 -33 -13 -43 -24 -10 -10 -24 -19 -31 -19 -7 0 -25 -10 -40 -21 l-27 -22 7 -100 c4 -59 3 -98 -2 -94 -9 5 -8 -62 1 -89 2 -8 20 -4 51 12 26 13 55 24 65 24 40 0 49 11 49 61 0 44 -3 49 -25 55 -28 7 -65 48 -65 72 0 11 8 8 33 -10 17 -14 47 -33 66 -42 l34 -18 -5 26 c-3 14 0 27 6 29 7 3 2 16 -11 35 -17 23 -23 45 -23 82 0 27 -3 49 -7 49 -5 -1 -19 -4 -33 -6z"></path><path id="p17fgOJZQq" d="M1181 2053 c0 -18 8 -54 18 -82 11 -27 18 -51 15 -54 -3 -3 -1 -8 5 -12 17 -10 13 32 -6 68 -9 18 -20 50 -24 72 -6 38 -7 38 -8 8z"></path><path id="pu7LCVM84" d="M1080 1908 c-27 -37 -40 -78 -24 -78 3 0 29 20 56 45 28 25 58 45 67 45 22 1 -28 29 -51 30 -10 0 -31 -19 -48 -42z"></path><path id="pGg53uqzG" d="M1510 1245 c0 -9 -11 -27 -25 -41 -14 -14 -25 -29 -25 -34 0 -4 23 -25 51 -45 28 -20 48 -32 44 -26 -3 6 -1 11 4 11 6 0 11 15 11 33 0 18 7 42 15 54 14 20 13 23 -7 37 -17 12 -24 13 -30 3 -5 -8 -8 -7 -8 6 0 9 -7 17 -15 17 -8 0 -15 -7 -15 -15z m40 -85 c0 -11 -7 -20 -15 -20 -18 0 -19 6 -2 25 16 19 17 18 17 -5z"></path><path id="pr5wBriR4" d="M1060 990 c-15 -28 -13 -30 34 -30 63 0 80 -8 64 -29 -12 -14 -11 -15 5 -2 9 7 17 19 17 25 0 15 -37 37 -78 47 -26 6 -34 3 -42 -11z"></path><path id="pEKbSycSc" d="M1210 808 c0 -7 5 -20 10 -28 8 -12 10 -11 10 7 0 12 -4 25 -10 28 -5 3 -10 0 -10 -7z"></path></g></g></svg>